<svg xmlns="http://www.w3.org/2000/svg" viewBox="0 0 110.44 187.05"><g id="Layer_2" data-name="Layer 2"><g id="모래시계"><path d="M95.53,161.87l-9-1c3.2-30.11-1.53-42-3.72-45.78a29.58,29.58,0,0,0-3-3.62L69.13,101a10,10,0,0,1,.38-14.65c2.26-2,5.62-5,10.53-9.55,8-7.34,8.69-35.19,7.25-51l9.07-.83c.42,4.65,3.74,45.8-10.17,58.56-5,4.57-8.35,7.62-10.64,9.66a.87.87,0,0,0-.31.65,1,1,0,0,0,.3.73l10.78,10.68a38.22,38.22,0,0,1,4.29,5.35C94.62,117.38,98.72,131.84,95.53,161.87Z"/><path d="M100.71,157.44a19.7,19.7,0,0,0-3.23-.15c-.14,0-.33,0-.44,0l-6.23,0c.67-3.12-.91-6.43-1.71-7.6-4-5.85-8.58-8.6-18-10.89a33.17,33.17,0,0,1-10.13-4.62,7.33,7.33,0,0,0-5.72-1.83v34.16L97,166.37a5.24,5.24,0,0,0,.58,0l1.57,0s2.16,1.93,2.16,11.61H55.21V187h50.52a4.55,4.55,0,0,0,4.54-4.31C111.12,166.91,107.91,158.4,100.71,157.44Z"/><path d="M55.23,107.26h0v8h0a4,4,0,1,0,0-8Z"/><path d="M82.39,39.28a5.28,5.28,0,0,0-4.94-1.23L58.69,42.82a25.74,25.74,0,0,1-3.48.16V99.2h0a4,4,0,0,0,4-4V81.37C73.73,77.08,82,65.11,83.75,45.59l.1-1.12A5.52,5.52,0,0,0,82.39,39.28Z"/><path d="M110.14,4.07A4.55,4.55,0,0,0,105.61,0H55.21V9.1h46.12c.08,5.62-.87,10.46-2,11.16a9.53,9.53,0,0,1-1.88.12l-42.22.14v9.11l42.13-.14a17.14,17.14,0,0,0,3.4-.24C112.07,27.47,110.55,8,110.14,4.07Z"/><path d="M14.91,161.87l9.05-1c-3.2-30.11,1.54-42,3.72-45.78a30.54,30.54,0,0,1,3-3.62L41.31,101a10,10,0,0,0-.38-14.65c-2.26-2-5.62-5-10.52-9.55-8-7.34-8.69-35.19-7.26-51l-9.07-.83c-.42,4.65-3.74,45.8,10.17,58.56,5,4.57,8.35,7.62,10.64,9.66a.87.87,0,0,1,.31.65,1,1,0,0,1-.3.73L24.12,105.17a38.22,38.22,0,0,0-4.29,5.35C15.82,117.38,11.72,131.84,14.91,161.87Z"/><path d="M9.73,157.44a19.7,19.7,0,0,1,3.23-.15c.15,0,.33,0,.44,0l6.23,0c-.67-3.12.91-6.43,1.71-7.6,4-5.85,8.58-8.6,18.05-10.89a33.29,33.29,0,0,0,10.13-4.62,7.32,7.32,0,0,1,5.71-1.83v34.16l-41.77-.14a5.34,5.34,0,0,1-.58,0l-1.58,0S9.14,168.27,9.14,178H55.23V187H4.71a4.55,4.55,0,0,1-4.54-4.31C-.68,166.91,2.54,158.4,9.73,157.44Z"/><path d="M55.22,107.26h0v8h0a4,4,0,1,1,0-8Z"/><path d="M28.05,39.28A5.28,5.28,0,0,1,33,38.05l18.76,4.77a25.89,25.89,0,0,0,3.48.16V99.2h0a4,4,0,0,1-4-4V81.37C36.71,77.08,28.44,65.11,26.7,45.59l-.11-1.12A5.57,5.57,0,0,1,28.05,39.28Z"/><path d="M.3,4.07A4.57,4.57,0,0,1,4.83,0h50.4V9.1H9.12c-.08,5.62.86,10.46,2,11.16a9.64,9.64,0,0,0,1.89.12l42.21.14v9.11L13.1,29.5a17,17,0,0,1-3.39-.24C-1.63,27.47-.11,8,.3,4.07Z"/></g></g></svg>