<svg xmlns="http://www.w3.org/2000/svg" viewBox="0 0 741.37 1293.45"><defs><style>.cls-1{fill:#6b6b6b;}.cls-2{fill:#ccc;}.cls-3,.cls-4,.cls-6,.cls-7{fill:none;}.cls-3{stroke:#fff;stroke-linecap:round;stroke-width:5px;}.cls-3,.cls-7{stroke-linejoin:round;}.cls-4{stroke:#353535;stroke-width:10px;}.cls-4,.cls-6{stroke-miterlimit:10;}.cls-5{fill:#231815;}.cls-6,.cls-7{stroke:#231815;stroke-width:6px;}.cls-8{fill:#3494b6;}</style></defs><g id="레이어_2" data-name="레이어 2"><g id="레이어_1-2" data-name="레이어 1"><path class="cls-1" d="M191.76,35.43s-82.37,432.4-59.77,561c16.42,93.37-11,172-25.3,204.72a58.06,58.06,0,0,1-19,23.7C61.69,843.79,9.6,898.3,5.51,999c-2,49.08,2.46,93.33,3.27,138.36C10.08,1208.54,49.7,1269,71,1267.51c0,0,45.85,7.37,94.15-4.91,0,0,33.9-.68,49.95,9.76,55.45,36.09,180.65,10.64,250.5-67.88,0,0,38.48-66.93,42.57-125.26,3.6-51.25,60.78-81.66,73.68-120.34s-4.13-188.18,4.91-215.31c9.82-29.47,86-96.81,108.06-117.07s72-334,15.56-348.75C655,263.31,596.79,252.17,580.21,246.64s-80-198.12-265.66-241.5a148,148,0,0,0-53.62,27.63c-24.53,20-41.86-5.64-52-8.4C196.44,21,193.11,32.38,191.76,35.43Z"/><path class="cls-2" d="M729.23,405.59c-58.94-44.21-75.52-36.84-75.52-36.84-77.36,36.84-76.75,19-76.75,19-28.86-105.61-73.07-162.1-73.07-162.1s-91.48-55.26-95.16-77.36,23.94-83.71,23.94-83.71l-54.85-30.7L317.24,11.41,252.16,36,201.4,27l-5.73,38.48L174.38,176l-15.55,93.33L143.27,428.11l-5.73,91.69-4.09,131-9.82,119.53-10.7,39.93L122,801S103,930,80.24,959.42c0,0,14.73-54.65,16-66.93,1.06-10.57-28.83-21.6-37.15-24.45L18,902.11l-4.1,91.69s33.57,16.38,35.21,20.47.82,70.4.82,70.4,140,40.94,192.38,106.43,84.32,30.29,84.32,30.29c74.5,18,72.05-5.73,72.05-5.73,10.64-31.11,41.75-82.69,49.93-95.78s2.46-53.22,54-102.34,41.75-64.67,41.75-64.67c-11.46-127.71,9-183.38,11.46-192.39s16.37-3.27,16.37-3.27c22.93-63.86,20.47-154.73,20.47-154.73,92.51,27,85.14-18,94.15-16.37s20.87,0,20.87,0C743.35,524.71,729.23,405.59,729.23,405.59ZM314.78,1206.25c-20.46,6.14-34.38,0-34.38,0s-7.87-15.13-4.5-20.88a24.13,24.13,0,0,0,3-10.85s.06-3.63,6.86-3.07c11.84,1,18.42,20.47,18.42,20.47C317.65,1195.19,314.78,1206.25,314.78,1206.25Zm63.86-2.46c-4.3,2.46-39.91,3.68-68.15-27s-42.06-25.17-42.06-25.17-1.2-.21-1.54,1.94c-1.14,7.25-3.11,25.11-7.37,29.37,0,0-2.8,1.39-5.52-1.53-15-16.1-71-74.26-184.82-109.6,0,0-6.75,3.68-4.91-47.28,0,0,44.21-82.27,57.72-111.75s27.63-117.88,27.63-117.88,57.71,190.34,191.57,268.31c0,0,14.12,4.92-30.7,44.83,0,0,1.84,88.41,61.4,59.55,0,0,10.43-24.56,25.78-20.87S382.94,1201.33,378.64,1203.79ZM163.74,532.08S226,562.37,237.42,677.8s32.75,146.54,43.39,168.64,13.92,154.73,13.92,154.73C195.26,886.51,169.47,779.84,164.4,750.72a60.51,60.51,0,0,1-.66-15.21C172.55,624.2,163.74,532.08,163.74,532.08Zm315.59,412.6s-41.75,22.72-55.87,40.53-10.44,20.26-11.66,31.92,16.6,26.47-19,41.14c-17.8,7.33-24.6-12.65-26.3-18.93a7.44,7.44,0,0,1,0-2.66s6-15.86,22.62-23.84c0,0,43-60.79,75.52-70,0,0,16-23.33,31.31-51C495.91,891.88,505.74,903.54,479.33,944.68Zm-19.49-33.1c-43,36.84-45.44,28.24-67.54,55.26s-46.66,63.85-47.89,67.54-28.24-1.23-29.47-14.74-2.46-54,2.45-66.31c0,0-.82-64.27-5.73-88.83s-43.39-95.78-43.39-106.42c0,0-20.26-84.12-23.94-140.61s-78.29-112-78.67-113.2a27.93,27.93,0,0,1-3.45-7c-2.84-7.85-1.28-19.75,1.53-21.69a12.6,12.6,0,0,1,8.14-1.79c9.24.84,23.16,17.47,23.87,18.34a9.09,9.09,0,0,0,2.53.08C206.87,491,202,475.64,213,470.73s154.85,79.32,158.41,83.5c3,3.48-40.06,135.64-37.3,151.91.85,5,35.59,14.79,42.26,17.13.66.24,1.52.68,2.16,1,3.81,1.84,3.72,7.29,2.56,14.43C379,751.56,374.56,771,375,776.86c.35,5.27,90.71,39.24,98.08,38s18.44-85.56,28.55-85c9.77.52,18.41,5,19.27,6a.87.87,0,0,1,.34.77C520.69,748.82,501,876.31,459.84,911.58Zm54.7-343.07c-6.55,1.22-38.07-16-38.07-28.66s18.42-45,18.42-45a7,7,0,0,1,4.86-1.9c5.17-.29,34,17,36.89,24.41S521.09,567.28,514.54,568.51Z"/><polyline class="cls-3" points="297.18 102.28 310.28 42.52 364.31 76.08 350.39 137.48"/><polyline class="cls-3" points="433.9 328.23 256.25 223.44 289.81 96.55 463.37 214.44 359.81 620.08 382.32 627.04"/><line class="cls-3" x1="291.45" y1="243.91" x2="237.42" y2="464.13"/><polyline class="cls-3" points="390.31 683.73 366.36 780.13 474.42 824.34 501.59 729.83"/><polygon class="cls-3" points="597.22 474.98 573.89 552.95 674.59 590.41 699.76 511.2 597.22 474.98"/><path class="cls-4" d="M191.76,35.43s-82.37,432.4-59.77,561c16.42,93.38-11,172-25.3,204.73a58.06,58.06,0,0,1-19,23.7C61.69,843.79,9.6,898.3,5.51,999c-2,49.08,2.46,93.33,3.27,138.36C10.08,1208.54,49.7,1269,71,1267.51c0,0,45.85,7.37,94.15-4.91,0,0,33.9-.68,49.95,9.76,55.45,36.09,180.65,10.64,250.5-67.88,0,0,38.48-66.93,42.57-125.26,3.6-51.25,60.78-81.66,73.68-120.34s-4.13-188.18,4.91-215.31c9.82-29.47,86-96.81,108.06-117.07s72-334,15.56-348.75C655,263.31,596.79,252.17,580.21,246.64s-80-198.12-265.66-241.5a148,148,0,0,0-53.62,27.63c-24.53,20-41.86-5.64-52-8.4C196.44,21,193.11,32.38,191.76,35.43Z"/><circle class="cls-5" cx="635.7" cy="528.98" r="26.76"/><circle class="cls-5" cx="407.99" cy="637.81" r="26.76"/><line class="cls-6" x1="259.98" y1="52.65" x2="239.52" y2="117.78"/><circle class="cls-5" cx="230.97" cy="140.95" r="26.76"/><line class="cls-6" x1="236.82" y1="153.39" x2="307.43" y2="459.78"/><circle class="cls-5" cx="314.39" cy="474.04" r="26.76"/><line class="cls-6" x1="316.03" y1="480.65" x2="395.23" y2="626.79"/><line class="cls-6" x1="429.63" y1="647.92" x2="456.41" y2="664.76"/><circle class="cls-5" cx="474.65" cy="669.29" r="26.76"/><line class="cls-6" x1="479.35" y1="666.08" x2="620.78" y2="546.9"/><line class="cls-6" x1="467.07" y1="685.73" x2="443.13" y2="742.83"/><circle class="cls-5" cx="432.28" cy="757.71" r="26.76"/><polyline class="cls-7" points="491.78 682.65 543.27 745.83 510.05 925.8"/><circle class="cls-5" cx="503.33" cy="939.19" r="26.76"/><polyline class="cls-6" points="497.16 959.57 314.18 1197.95 58.38 1066.36 56.33 979.28"/><circle class="cls-5" cx="56.33" cy="959.98" r="26.76"/><circle class="cls-8" cx="266.04" cy="34.27" r="26.76"/><circle class="cls-5" cx="266.04" cy="34.27" r="26.76"/></g></g></svg>