<svg xmlns="http://www.w3.org/2000/svg" viewBox="0 0 242.13 290.22"><defs><style>.cls-1{fill:#daedff;}</style></defs><g id="Layer_2" data-name="Layer 2"><g id="문의"><path class="cls-1" d="M204.24,290.22a13.54,13.54,0,0,1-3.44-.45c-61.46-16.57-93.27-43.59-103.16-53.27-31-6.41-55.36-20.12-72.45-40.8C8.71,175.76,0,150,0,121.07a121.07,121.07,0,1,1,242.13,0c0,22.83-5.41,42.46-16.55,60-8.2,12.91-19.26,24.37-34.59,35.79-4.7,26.56,21.6,50.06,21.88,50.3a13.13,13.13,0,0,1-8.63,23.05Zm-90.07-74.43c.45.5,7.31,8,21.74,17.54a218.19,218.19,0,0,0,34.16,18.12c-5.56-13.09-8.43-28.94-3.33-46.11a13.16,13.16,0,0,1,5-7C186.31,188,196.37,178,203.38,167c8.39-13.2,12.46-28.22,12.46-45.91a94.78,94.78,0,1,0-189.55,0c0,22.7,6.63,42.71,19.17,57.88,13.79,16.7,34.36,27.63,61.12,32.5A12.78,12.78,0,0,1,114.17,215.79Z"/><circle class="cls-1" cx="122.17" cy="166.57" r="10.11"/><path class="cls-1" d="M151.58,86.38c-3.23-14.37-16-25-29.57-24.86-11.72.17-18.73,4.92-22.56,8.88C91,79.18,91,90.86,91,92.16h0a9,9,0,0,0,17.91-.4h0A16.29,16.29,0,0,1,110.75,85c1.31-2.34,3.92-5.47,11.52-5.58h.12c5.2,0,10.33,4.75,11.7,10.87,1.53,6.79-2.2,12.62-10.51,16.4A17.9,17.9,0,0,0,113.18,123v16.2a9,9,0,0,0,17.92,0V123C150.29,114.19,154.26,98.32,151.58,86.38Z"/></g></g></svg>