<svg xmlns="http://www.w3.org/2000/svg" viewBox="0 0 305.88 305.88"><defs><style>.cls-1{fill:#fff;}</style></defs><g id="Layer_2" data-name="Layer 2"><g id="두꺼운_X" data-name="두꺼운 X"><path class="cls-1" d="M4.4,260.42,133.92,134.91,260.43,4.39a15,15,0,0,1,21.22,0l19.84,19.85a15,15,0,0,1,0,21.21l-129,125-127,131.05a15,15,0,0,1-21.21,0L4.4,281.64A15,15,0,0,1,4.4,260.42Z"/><path class="cls-1" d="M45.45,4.4,171.74,134.69,301.48,260.43a15,15,0,0,1,0,21.22l-19.84,19.84a15,15,0,0,1-21.22,0L133.58,170.65,4.39,45.46a15,15,0,0,1,0-21.21L24.24,4.4A15,15,0,0,1,45.45,4.4Z"/></g></g></svg>