<svg xmlns="http://www.w3.org/2000/svg" viewBox="0 0 578.22 549.19"><g id="Layer_2" data-name="Layer 2"><g id="홈"><path d="M568.18,242.62,519.61,199.5V50.38a17.45,17.45,0,0,0-17.45-17.45H399.65a17.44,17.44,0,0,0-17.44,17.45V74.76L311.08,8.48a31.58,31.58,0,0,0-42.73-.31l-144.9,131.2L9.75,242.9c-20,18.24-7.13,51.57,20,51.57H70.24V530.06a19.12,19.12,0,0,0,19.13,19.13H227.93a19.13,19.13,0,0,0,19.13-19.13V388.84H330.4V530.06a19.12,19.12,0,0,0,19.13,19.13H488.09a19.12,19.12,0,0,0,19.13-19.13V294.47h41.27C575.78,294.47,588.59,260.73,568.18,242.62Z"/></g></g></svg>