<svg xmlns="http://www.w3.org/2000/svg" viewBox="0 0 510.28 522.01"><g id="Layer_2" data-name="Layer 2"><g id="지도"><path d="M255.14,515.51c-67.17,0-130.21-12.92-177.52-36.37C31.76,456.4,6.5,426.71,6.5,395.53c0-23.68,14.7-46.71,42.51-66.62,27.19-19.48,64.75-34.54,108.85-43.7,3.18,5.86,6.52,11.85,10,17.93-86.33,15.31-141.56,51.35-141.56,93,0,27.87,24.57,53.58,69.19,72.41,42.84,18.07,99.66,28,160,28s117.15-9.95,160-28c44.62-18.83,69.19-44.54,69.19-72.41,0-41.07-54.19-76.92-138.9-92.51,3.47-6,6.8-11.95,10-17.71,43.24,9.34,80,24.41,106.54,43.69,27.18,19.75,41.55,42.55,41.55,65.93,0,31.18-25.26,60.87-71.12,83.61C385.35,502.59,322.31,515.51,255.14,515.51Z"/><path d="M154.48,292.58l3.24,5.85c-36,7.18-67.13,18.22-90.75,32.29-39,23.22-47.2,48.39-47.2,65.41,0,30.65,26,58.49,73.16,78.4,43.62,18.4,101.34,28.53,162.51,28.53S374.33,492.93,418,474.53c47.19-19.91,73.17-47.75,73.17-78.4,0-16.85-8-41.79-46.34-64.89-23.11-13.94-53.59-25-88.93-32.26q1.61-2.85,3.17-5.67c83.1,19,138.26,59.49,138.26,102.22,0,13.89-5.7,27.62-16.94,40.79-11.7,13.72-28.71,26.16-50.56,37-22.45,11.13-48.69,19.89-78,26A472.16,472.16,0,0,1,255.14,509a472.23,472.23,0,0,1-96.64-9.67c-29.31-6.14-55.55-14.9-78-26-21.85-10.83-38.86-23.27-50.56-37C18.7,423.15,13,409.42,13,395.53c0-27.15,21.64-48.34,39.79-61.34,25.5-18.26,60.51-32.57,101.69-41.61m6.82-14.7C66.83,296.42,0,342.1,0,395.53,0,465.38,114.23,522,255.14,522s255.14-56.63,255.14-126.48c0-52.8-65.27-98-158-117q-7.69,14.2-16.88,29.89c83.47,13.55,142.71,47.7,142.71,87.69,0,51.87-99.7,93.93-222.68,93.93S32.77,448,32.77,396.13c0-40.42,60.49-74.86,145.36-88.12-5.69-9.8-11.34-19.88-16.83-30.13Z"/><path d="M257.65,0C188.25,0,132,56.59,132,126.4c0,.36,0,.72,0,1.08q-.15,4.28,0,8.74c3.51,92.05,124.37,252.25,124.37,252.25C349.3,260,373.94,187.18,380.25,154.07a127.38,127.38,0,0,0,3.05-27.67C383.3,56.59,327.05,0,257.65,0Zm.91,163.9a46,46,0,1,1,46-46A46,46,0,0,1,258.56,163.9Z"/></g></g></svg>