<svg xmlns="http://www.w3.org/2000/svg" viewBox="0 0 489.9 489.9"><defs><style>.cls-1{fill:#fe3d2f;}.cls-2{fill:#fff;}</style></defs><g id="Layer_2" data-name="Layer 2"><g id="경고"><circle class="cls-1" cx="244.95" cy="244.95" r="244.95"/><path class="cls-2" d="M244.82,375.48a18.69,18.69,0,0,1-14-5.62,20.53,20.53,0,0,1,0-27.93,18.69,18.69,0,0,1,14-5.62,19.19,19.19,0,0,1,19.71,19.59A18.6,18.6,0,0,1,258.79,370,19.45,19.45,0,0,1,244.82,375.48Z"/><path class="cls-2" d="M244.94,299.4h0a16,16,0,0,1-16-16l-6-149a22,22,0,0,1,22-22h0a22,22,0,0,1,22,22l-6,149.05A16,16,0,0,1,244.94,299.4Z"/></g></g></svg>