<svg xmlns="http://www.w3.org/2000/svg" viewBox="0 0 286.96 184.83"><defs><style>.cls-1{fill:#dbeeff;}</style></defs><g id="Layer_2" data-name="Layer 2"><g id="크레딧"><path class="cls-1" d="M197.26,103.38c-.46-.14-1.07-.38-1.53-.47A28,28,0,0,1,189.07,84a32.56,32.56,0,0,1,10-23.47,34.65,34.65,0,0,1,48.13,0,32.6,32.6,0,0,1,0,46.93,34.25,34.25,0,0,1-24.07,9.73c-.54,0-1.08,0-1.61,0A67,67,0,0,0,210,108.84,70.11,70.11,0,0,0,197.26,103.38ZM243.13,84a20,20,0,1,0-20,19.52C234.14,103.53,243.13,94.77,243.13,84Z"/><path class="cls-1" d="M265,148.19A27.24,27.24,0,0,0,251.34,140a15.44,15.44,0,0,0-3.74-.45H234.74a59.31,59.31,0,0,0-7.44-13.66h20.3a29.9,29.9,0,0,1,7.21.87,42.35,42.35,0,0,1,9.61,3.7,40.13,40.13,0,0,1,11.13,8.75,42.89,42.89,0,0,1,8.69,15.55,65.35,65.35,0,0,1,2.62,23.1,6.92,6.92,0,0,1-7,6.51H233.28c5.18,0,6.21-4,6.46-9,.07-1.57.12-3.12.13-4.66h33C272.43,161.19,269.77,153.62,265,148.19Z"/><path class="cls-1" d="M207.53,113.51a51.77,51.77,0,0,0-30.29-9.59H143.35v18.9h33.89a33,33,0,0,1,19.3,6.08c13.24,9.45,16.37,26.67,17,37H143.35v18.91H223a9.44,9.44,0,0,0,9.4-8.53C232.52,174.58,236.17,134,207.53,113.51Z"/><path class="cls-1" d="M175.85,13.45A45.62,45.62,0,0,0,143.38,0h0V18.91h0a27,27,0,0,1,0,54h0v18.9h0a45.91,45.91,0,0,0,32.47-78.38Z"/><path class="cls-1" d="M89.7,103.38c.46-.14,1.07-.38,1.53-.47A28,28,0,0,0,97.9,84a32.56,32.56,0,0,0-10-23.47,34.66,34.66,0,0,0-48.14,0,32.6,32.6,0,0,0,0,46.93,34.27,34.27,0,0,0,24.07,9.73c.54,0,1.08,0,1.62,0a67.34,67.34,0,0,1,11.44-8.32A70.11,70.11,0,0,1,89.7,103.38ZM43.84,84a20,20,0,1,1,20,19.52A19.8,19.8,0,0,1,43.84,84Z"/><path class="cls-1" d="M22,148.19A27.24,27.24,0,0,1,35.62,140a15.44,15.44,0,0,1,3.74-.45H52.23a59.31,59.31,0,0,1,7.44-13.66H39.36a30,30,0,0,0-7.21.87,42.35,42.35,0,0,0-9.61,3.7,40.08,40.08,0,0,0-11.12,8.75,42.91,42.91,0,0,0-8.7,15.55A65.58,65.58,0,0,0,.1,177.9a6.94,6.94,0,0,0,7,6.51H53.68c-5.18,0-6.21-4-6.45-9-.08-1.57-.12-3.12-.14-4.66h-33C14.54,161.19,17.19,153.62,22,148.19Z"/><path class="cls-1" d="M79.44,113.51a51.75,51.75,0,0,1,30.29-9.59h33.88v18.9H109.73a33,33,0,0,0-19.31,6.08c-13.24,9.45-16.37,26.67-17,37h70.18v18.91H64a9.46,9.46,0,0,1-9.41-8.53C54.44,174.58,50.79,134,79.44,113.51Z"/><path class="cls-1" d="M111.12,13.45A45.61,45.61,0,0,1,143.58,0h0V18.91h0a27,27,0,0,0,0,54h0v18.9h0a45.91,45.91,0,0,1-32.46-78.38Z"/></g></g></svg>