<svg xmlns="http://www.w3.org/2000/svg" viewBox="0 0 59.47 59.47"><defs><style>.cls-1,.cls-2{fill:#fff;}.cls-1{fill-rule:evenodd;}.cls-3{fill:none;}</style></defs><g id="Layer_2" data-name="Layer 2"><g id="링크_이동" data-name="링크 이동"><path class="cls-1" d="M29.74,59.47A29.74,29.74,0,0,1,0,29.74H0A29.74,29.74,0,0,1,28.41,0V0h1.33A29.74,29.74,0,0,1,59.47,29.74h0A29.74,29.74,0,0,1,29.74,59.47ZM10.18,49.29A27.65,27.65,0,1,0,29.77,2.09h0A27.62,27.62,0,0,0,2.09,29.74h0A27.59,27.59,0,0,0,10.18,49.29Z"/><path class="cls-2" d="M13.64,24.77,27.33,16.3l7.75-1.2.37,1L21.88,24.6,14,25.78ZM17,24.13l4.56-.69,10.64-6.67-4.46.68Z"/><path class="cls-2" d="M14.21,25.45l-.2-.56,13.42-8.31,7.45-1.14.21.55L21.77,24.32Zm13.37-8.28-12,7.47,6.06-.91,11.92-7.48Z"/><path class="cls-2" d="M14.21,25.45l-.2-.56,13.42-8.31,7.45-1.14.21.55L21.77,24.32Zm13.37-8.28-12,7.47,6.06-.91,11.92-7.48Z"/><polyline class="cls-2" points="23.47 22.93 34.93 15.73 27.48 16.88 14.16 25.15 21.73 24.02 23.47 22.93"/><path class="cls-2" d="M13.32,26.08c-.31,0-.76-.14-.84-.44s.21-.68.48-.84L27.17,16l9.12-1.69.4,1L22,24.87,13.4,26.08Zm4.95-2.4,3.16-.51L31.73,17l-3.94.76Z"/><path class="cls-2" d="M13.32,25.78A.37.37,0,0,1,13,25.5a.4.4,0,0,1,.17-.45l14.16-8.72,8.83-1.64.21.55-14.4,9.34-8.55,1.2Zm3.54-1.56,4.68-.76,11.79-7.11-5.65,1.09Z"/><path class="cls-2" d="M13.32,25.78A.37.37,0,0,1,13,25.5a.4.4,0,0,1,.17-.45l14.16-8.72,8.83-1.64.21.55-14.4,9.34-8.55,1.2Zm3.54-1.56,4.68-.76,11.79-7.11-5.65,1.09Z"/><path class="cls-2" d="M12.89,25.54l14.5-8.93L36.16,15l-14.35,9.3Zm14.67-8.39-12.12,7.6,6.2-1,13.29-8Z"/><polygon class="cls-2" points="25.42 41.13 20.19 38 20.19 30.04 25.42 33.16 25.42 41.13"/><polygon class="cls-2" points="29.45 44.65 29.45 34.01 29.99 34.01 29.99 33.63 31.19 33.63 31.19 44.65 29.45 44.65"/><polygon class="cls-2" points="30.89 44.35 29.75 44.35 29.75 34.31 30.29 34.31 30.29 33.93 30.89 33.93 30.89 44.35"/><polygon class="cls-2" points="30.89 44.35 29.75 44.35 29.75 34.31 30.29 34.31 30.29 33.93 30.89 33.93 30.89 44.35"/><polyline class="cls-2" points="30.59 33.93 30.59 44.05 30.05 44.05 30.05 34.31"/><polygon class="cls-3" points="21.02 23.74 36.25 14.56 44.71 25.8 29.48 35.47 21.02 23.74"/><polygon class="cls-3" points="21.45 23.83 36.17 14.96 44.28 25.72 29.55 35.07 21.45 23.83"/><polygon class="cls-3" points="21.45 23.83 36.17 14.96 44.28 25.72 29.55 35.07 21.45 23.83"/><polygon class="cls-3" points="43.84 25.64 29.63 34.66 21.88 23.92 36.09 15.35 43.84 25.64"/><path class="cls-2" d="M20.62,23.66l15.67-9.31,8.82,11.53-15.7,10Zm9.24,9.82,12.71-8.07-6.7-8.9L23.15,24.18Z"/><path class="cls-2" d="M21.05,23.75l15.06-9.06L44.68,25.8,29.49,35.44Zm8.73,10.13L43,25.49,36,16.11l-13.23,8Z"/><path class="cls-2" d="M21.05,23.75l15.19-9.16L44.68,25.8,29.49,35.44Zm8.73,10.13L43,25.49,36,16.11l-13.23,8Z"/><path class="cls-2" d="M29.56,35,21.49,23.84,36.16,15l8.08,10.73ZM22.28,24,29.7,34.29l13.74-8.72L36,15.72Z"/><path class="cls-2" d="M15.81,36.5V23.77l7.37-1.93-.5,1.75,7.19,9.84,13-8.2,0,11.56-12.54,8.4Zm14.42,6.56L41,35.83l0-7.33L29.41,35.85,21,24.28l-3.35.88V35.48Z"/><path class="cls-2" d="M16.11,36.33V24l6.64-1.73-.4,1.38,7.44,10.18,12.77-8.06,0,10.86L30.27,44.84Zm14.13,7.09L41.32,36l0-8L29.49,35.45l-8.4-11.51-3.78,1V35.65Z"/><path class="cls-2" d="M16.11,36.33V24l6.64-1.73-.4,1.38,7.44,10.18,12.77-8.06,0,10.86L30.27,44.84Zm14.13,7.09L41.32,36l0-8L29.49,35.45l-8.4-11.51-3.78,1V35.65Z"/><path class="cls-2" d="M30.26,44.48,16.41,36.16V24.23l5.9-1.54-.28,1,7.69,10.53,12.54-7.92,0,10.15ZM17,35.82l13.24,8,11.37-7.62.05-8.74L29.56,35.05,21.41,23.88l.24-.4L17,24.69Z"/></g></g></svg>