<svg xmlns="http://www.w3.org/2000/svg" viewBox="0 0 59.47 59.47"><defs><style>.cls-1,.cls-2{fill:#fff;}.cls-1{fill-rule:evenodd;}</style></defs><g id="Layer_2" data-name="Layer 2"><g id="링크_이동" data-name="링크 이동"><path class="cls-1" d="M29.74,59.47A29.74,29.74,0,0,1,0,29.74H0A29.74,29.74,0,0,1,28.41,0V0h1.33A29.74,29.74,0,0,1,59.47,29.74h0A29.74,29.74,0,0,1,29.74,59.47ZM10.18,49.29A27.65,27.65,0,1,0,29.77,2.09h0A27.62,27.62,0,0,0,2.09,29.74h0A27.59,27.59,0,0,0,10.18,49.29Z"/><path class="cls-2" d="M29.74,17.87c3.86,0,4.32,0,5.84.09a7.86,7.86,0,0,1,2.69.5,4.38,4.38,0,0,1,1.66,1.08A4.46,4.46,0,0,1,41,21.2a7.86,7.86,0,0,1,.5,2.69c.07,1.52.09,2,.09,5.85s0,4.32-.09,5.84a7.86,7.86,0,0,1-.5,2.69A4.78,4.78,0,0,1,38.27,41a7.86,7.86,0,0,1-2.69.5c-1.52.07-2,.09-5.84.09s-4.33,0-5.85-.09A7.86,7.86,0,0,1,21.2,41a4.46,4.46,0,0,1-1.66-1.08,4.38,4.38,0,0,1-1.08-1.66,7.86,7.86,0,0,1-.5-2.69c-.07-1.52-.09-2-.09-5.84s0-4.33.09-5.85a7.86,7.86,0,0,1,.5-2.69,4.78,4.78,0,0,1,2.74-2.74,7.86,7.86,0,0,1,2.69-.5c1.52-.07,2-.09,5.85-.09m0-2.6c-3.93,0-4.43,0-6,.08a10.78,10.78,0,0,0-3.51.68A7.42,7.42,0,0,0,16,20.26a10.78,10.78,0,0,0-.68,3.51c-.07,1.54-.08,2-.08,6s0,4.42.08,6A10.78,10.78,0,0,0,16,39.21a7.42,7.42,0,0,0,4.23,4.23,10.52,10.52,0,0,0,3.51.68c1.54.07,2,.08,6,.08s4.42,0,6-.08a10.52,10.52,0,0,0,3.51-.68,7.42,7.42,0,0,0,4.23-4.23,10.52,10.52,0,0,0,.68-3.51c.07-1.54.08-2,.08-6s0-4.43-.08-6a10.52,10.52,0,0,0-.68-3.51A7.42,7.42,0,0,0,39.21,16a10.78,10.78,0,0,0-3.51-.68c-1.54-.07-2-.08-6-.08Z"/><path class="cls-2" d="M29.74,22.31a7.43,7.43,0,1,0,7.42,7.43A7.42,7.42,0,0,0,29.74,22.31Zm0,12.25a4.83,4.83,0,1,1,4.82-4.82A4.82,4.82,0,0,1,29.74,34.56Z"/><circle class="cls-2" cx="37.46" cy="22.01" r="1.74"/></g></g></svg>