<svg xmlns="http://www.w3.org/2000/svg" viewBox="0 0 271.45 265.53"><defs><style>.cls-1{fill:#dbeeff;}</style></defs><g id="Layer_2" data-name="Layer 2"><g id="초기화"><polygon class="cls-1" points="271.45 206.02 205.07 178.94 257.44 147.88 271.45 206.02"/><path class="cls-1" d="M226.7,183c-20.3,38.47-64.79,61.14-110.53,52.71C74.62,228,43.62,196.8,34.91,158.88h0a14.41,14.41,0,0,0-17-10.85A14.08,14.08,0,0,0,6.68,164.55h0a.13.13,0,0,1,0,.06h0c11,48.71,50.79,88.82,104.12,98.66,58.64,10.81,115.69-18.33,141.62-67.71Z"/><polygon class="cls-1" points="0 59.5 66.38 86.59 14.01 117.65 0 59.5"/><path class="cls-1" d="M44.75,82.58c20.3-38.47,64.79-61.15,110.53-52.71,41.55,7.66,72.55,38.86,81.26,76.77h0a14.4,14.4,0,0,0,17,10.86A14.09,14.09,0,0,0,264.77,101h0a.13.13,0,0,1,0-.06h0C253.71,52.2,214,12.08,160.63,2.25,102-8.57,44.94,20.57,19,70Z"/></g></g></svg>