<svg xmlns="http://www.w3.org/2000/svg" viewBox="0 0 376.43 421.57"><defs><style>.cls-1{opacity:0.5;}.cls-2{fill:#fff;}</style></defs><g id="Layer_2" data-name="Layer 2"><g id="자물쇠"><g class="cls-1"><path d="M324.5,155.55H51.93A51.93,51.93,0,0,0,0,207.48V369.63a51.94,51.94,0,0,0,51.93,51.94H324.5a51.94,51.94,0,0,0,51.93-51.94V207.48A51.93,51.93,0,0,0,324.5,155.55ZM213.14,341.34H165.32l14.26-57.47c-11.28-3.33-19.39-12.46-19.39-23.21,0-13.57,12.91-24.58,28.84-24.58s28.83,11,28.83,24.58c0,10.79-8.17,19.95-19.52,23.25Z"/><path d="M90.24,183.64l-45.48-7.06c.44-2.82,11.11-69.75,47.22-116C114,32.39,154.75,12,189,12V58c-20.19,0-47.44,13.86-60.72,30.89C99.63,125.56,90.33,183.06,90.24,183.64Z"/><path d="M287.75,183.64c-.09-.58-9.39-58.08-38-94.78C236.44,71.83,209.19,58,189,58V12c34.25,0,75.05,20.44,97,48.59,36.11,46.29,46.78,113.22,47.22,116Z"/></g><path class="cls-2" d="M319.43,149.68H57a50,50,0,0,0-50,50V355.8a50,50,0,0,0,50,50H319.43a50,50,0,0,0,50-50V199.68A50,50,0,0,0,319.43,149.68ZM212.22,328.56H166.17l13.73-55.33c-10.86-3.21-18.67-12-18.67-22.35,0-13.07,12.43-23.66,27.77-23.66s27.76,10.59,27.76,23.66c0,10.39-7.87,19.21-18.8,22.39Z"/><path class="cls-2" d="M92.44,167.87,48,161c.43-2.76,10.86-68.2,46.17-113.46C115.62,20,155.51,0,189,0V45c-19.74,0-46.38,13.55-59.37,30.2C101.61,111.08,92.53,167.3,92.44,167.87Z"/><path class="cls-2" d="M285.55,167.87c-.09-.57-9.17-56.79-37.18-92.67C235.38,58.55,208.74,45,189,45V0c33.49,0,73.38,20,94.86,47.51C319.16,92.77,329.59,158.21,330,161Z"/></g></g></svg>