<svg xmlns="http://www.w3.org/2000/svg" viewBox="0 0 607.89 314.9"><defs><style>.cls-1{fill:#122636;}.cls-2{fill:#355a7b;}</style></defs><g id="Layer_2" data-name="Layer 2"><g id="수첩_고리" data-name="수첩 고리"><circle class="cls-1" cx="499.18" cy="206.2" r="108.7"/><path class="cls-2" d="M539.62,204a68.74,68.74,0,0,0-75.88-60.78c-1,.11-93.78,16.26-190.35,19.21-28.88.88-71.23-.1-101.54-4.32a68.63,68.63,0,0,1-11.11-2.77c-5.1-1.64-9.5-4.87-9.83-10.22-.93-15.32,9.54-28.28,19.43-35.35,13.8-9.85,45.82-21.49,58-22.12V0c-19.56.7-48.63,2.72-74,8.48-36.71,8.35-67.74,22.41-92.23,41.8C27.48,77.71,6.29,115.52.86,159.62-3,191.08,6.32,221,27.14,243.82,59.31,279.1,110.6,286,145.85,292.05c10.13,1.72,54.43,5.84,79.68,6.93,17.77.77,35.56,1.39,52,.89,102.21-3.12,197.05-19.51,201.27-20A68.74,68.74,0,0,0,539.62,204Z"/></g></g></svg>