<svg xmlns="http://www.w3.org/2000/svg" viewBox="0 0 741.37 1293.45"><defs><style>.cls-1{fill:#6b6b6b;}.cls-2{fill:#ccc;}.cls-3,.cls-4,.cls-5,.cls-6{fill:none;}.cls-3{stroke:#fff;stroke-linecap:round;stroke-width:5px;}.cls-3,.cls-6{stroke-linejoin:round;}.cls-4{stroke:#353535;}.cls-4,.cls-5,.cls-8{stroke-miterlimit:10;}.cls-4,.cls-8{stroke-width:10px;}.cls-5,.cls-6{stroke:#000;stroke-width:6px;}.cls-7{fill:#3494b6;}.cls-8{fill:#96d0ed;stroke:#3688ba;}</style></defs><g id="레이어_2" data-name="레이어 2"><g id="레이어_1-2" data-name="레이어 1"><path class="cls-1" d="M191.76,1258S109.39,825.63,132,697c16.42-93.38-11-172-25.3-204.73a58.06,58.06,0,0,0-19-23.7c-26-18.95-78.09-73.45-82.18-174.15-2-49.07,2.46-93.33,3.27-138.35C10.08,84.91,49.7,24.45,71,25.94c0,0,45.85-7.37,94.15,4.91,0,0,33.9.68,49.95-9.76C270.55-15,395.75,10.45,465.6,89c0,0,38.48,66.92,42.57,125.25,3.6,51.25,60.78,81.66,73.68,120.35s-4.13,188.18,4.91,215.3c9.82,29.48,86,96.81,108.06,117.07s72,334,15.56,348.75c-55.37,14.45-113.59,25.59-130.17,31.11s-80,198.12-265.66,241.51a148.2,148.2,0,0,1-53.62-27.63c-24.53-20.06-41.86,5.64-52,8.39C196.44,1272.48,193.11,1261.07,191.76,1258Z"/><path class="cls-2" d="M729.23,887.86c-58.94,44.21-75.52,36.84-75.52,36.84-77.36-36.84-76.75-19-76.75-19-28.86,105.6-73.07,162.09-73.07,162.09s-91.48,55.26-95.16,77.37,23.94,83.7,23.94,83.7l-54.85,30.7-60.58,22.52-65.08-24.56-50.76,9L195.67,1228,174.38,1117.5l-15.55-93.33L143.27,865.35l-5.73-91.69-4.09-131-9.82-119.52-10.7-39.93,9.06,9.23S103,363.51,80.24,334c0,0,14.73,54.64,16,66.92,1.06,10.58-28.83,21.6-37.15,24.46L18,391.34l-4.1-91.69s33.57-16.37,35.21-20.46.82-70.41.82-70.41,140-40.93,192.38-106.43,84.32-30.29,84.32-30.29c74.5-18,72.05,5.73,72.05,5.73,10.64,31.11,41.75,82.69,49.93,95.79s2.46,53.21,54,102.33,41.75,64.67,41.75,64.67C533,468.3,553.42,524,555.88,533s16.37,3.28,16.37,3.28C595.18,600.1,592.72,691,592.72,691c92.51-27,85.14,18,94.15,16.38s20.87,0,20.87,0C743.35,768.75,729.23,887.86,729.23,887.86ZM314.78,87.21c-20.46-6.14-34.38,0-34.38,0s-7.87,15.12-4.5,20.87a24.13,24.13,0,0,1,3,10.85s.06,3.63,6.86,3.07c11.84-1,18.42-20.46,18.42-20.46C317.65,98.26,314.78,87.21,314.78,87.21Zm63.86,2.45c-4.3-2.45-39.91-3.68-68.15,27s-42.06,25.17-42.06,25.17-1.2.22-1.54-1.94c-1.14-7.25-3.11-25.11-7.37-29.37,0,0-2.8-1.39-5.52,1.54-15,16.1-71,74.25-184.82,109.59,0,0-6.75-3.68-4.91,47.28,0,0,44.21,82.28,57.72,111.75s27.63,117.89,27.63,117.89,57.71-190.34,191.57-268.32c0,0,14.12-4.91-30.7-44.82,0,0,1.84-88.42,61.4-59.56,0,0,10.43,24.56,25.78,20.88S382.94,92.12,378.64,89.66ZM163.74,761.38S226,731.09,237.42,615.66,270.17,469.11,280.81,447s13.92-154.73,13.92-154.73C195.26,407,169.47,513.61,164.4,542.73a60.53,60.53,0,0,0-.66,15.21C172.55,669.26,163.74,761.38,163.74,761.38ZM479.33,348.77s-41.75-22.72-55.87-40.52S413,288,411.8,276.32s16.6-26.46-19-41.14c-17.8-7.33-24.6,12.65-26.3,18.93a7.43,7.43,0,0,0,0,2.66s6,15.87,22.62,23.85c0,0,43,60.78,75.52,70,0,0,16,23.34,31.31,51C495.91,401.57,505.74,389.91,479.33,348.77Zm-19.49,33.11c-43-36.84-45.44-28.25-67.54-55.26s-46.66-63.86-47.89-67.54-28.24,1.22-29.47,14.73-2.46,54,2.45,66.31c0,0-.82,64.27-5.73,88.83s-43.39,95.78-43.39,106.43c0,0-20.26,84.11-23.94,140.6S166,788,165.66,789.19a27.71,27.71,0,0,0-3.45,7c-2.84,7.85-1.28,19.75,1.53,21.7a12.6,12.6,0,0,0,8.14,1.79c9.24-.84,23.16-17.48,23.87-18.34a9.09,9.09,0,0,1,2.53-.08c8.59,1.22,3.68,16.57,14.73,21.49s154.85-79.33,158.41-83.51c3-3.48-40.06-135.64-37.3-151.91.85-5,35.59-14.79,42.26-17.13.66-.23,1.52-.68,2.16-1,3.81-1.85,3.72-7.3,2.56-14.43-2.11-12.88-6.54-32.31-6.14-38.17.35-5.27,90.71-39.25,98.08-38s18.44,85.57,28.55,85c9.77-.51,18.41-5,19.27-6a.87.87,0,0,0,.34-.77C520.69,544.63,501,417.14,459.84,381.88ZM514.54,725c-6.55-1.23-38.07,16-38.07,28.65s18.42,45,18.42,45,1.44,1.7,4.86,1.89c5.17.29,34-17,36.89-24.41S521.09,726.17,514.54,725Z"/><polyline class="cls-3" points="297.18 1191.17 310.28 1250.94 364.31 1217.37 350.39 1155.97"/><polyline class="cls-3" points="433.9 965.22 256.25 1070.01 289.81 1196.91 463.37 1079.02 359.81 673.37 382.32 666.41"/><line class="cls-3" x1="291.45" y1="1049.55" x2="237.42" y2="829.33"/><polyline class="cls-3" points="390.31 609.72 366.36 513.32 474.42 469.12 501.59 563.62"/><polygon class="cls-3" points="597.22 818.48 573.89 740.5 674.59 703.05 699.76 782.25 597.22 818.48"/><path class="cls-4" d="M191.76,1258S109.39,825.63,132,697c16.42-93.38-11-172-25.3-204.73a58.06,58.06,0,0,0-19-23.7c-26-18.95-78.09-73.45-82.18-174.15-2-49.07,2.46-93.33,3.27-138.35C10.08,84.91,49.7,24.45,71,25.94c0,0,45.85-7.37,94.15,4.91,0,0,33.9.68,49.95-9.76C270.55-15,395.75,10.45,465.6,89c0,0,38.48,66.92,42.57,125.25,3.6,51.25,60.78,81.66,73.68,120.35s-4.13,188.18,4.91,215.3c9.82,29.48,86,96.81,108.06,117.07s72,334,15.56,348.75c-55.37,14.45-113.59,25.59-130.17,31.11s-80,198.12-265.66,241.51a148.2,148.2,0,0,1-53.62-27.63c-24.53-20.06-41.86,5.64-52,8.39C196.44,1272.48,193.11,1261.07,191.76,1258Z"/><circle cx="635.7" cy="764.47" r="26.76"/><circle cx="407.99" cy="655.65" r="26.76"/><line class="cls-5" x1="259.98" y1="1240.8" x2="239.52" y2="1175.67"/><circle cx="230.97" cy="1152.5" r="26.76"/><circle cx="314.39" cy="819.41" r="26.76"/><line class="cls-5" x1="316.03" y1="812.8" x2="395.23" y2="666.67"/><line class="cls-5" x1="429.63" y1="645.54" x2="456.41" y2="628.69"/><circle cx="474.65" cy="624.16" r="26.76"/><line class="cls-5" x1="479.35" y1="627.37" x2="620.78" y2="746.55"/><line class="cls-5" x1="467.07" y1="607.72" x2="443.13" y2="550.62"/><circle cx="432.28" cy="535.74" r="26.76"/><polyline class="cls-6" points="491.78 610.8 543.27 547.63 510.05 367.65"/><circle cx="503.33" cy="354.26" r="26.76"/><polyline class="cls-5" points="497.16 333.88 314.18 95.51 58.38 227.09 56.33 314.17"/><circle cx="56.33" cy="333.48" r="26.76"/><circle class="cls-7" cx="266.04" cy="1259.18" r="26.76"/><circle cx="266.04" cy="1259.18" r="26.76"/><circle cx="198.58" cy="897.51" r="26.76"/><line class="cls-5" x1="198.95" y1="909.62" x2="228.99" y2="1134.87"/><line class="cls-5" x1="215.47" y1="884.09" x2="299.57" y2="831.16"/><line class="cls-5" x1="314.86" y1="833.04" x2="238.84" y2="1140.5"/><circle class="cls-8" cx="266.04" cy="1259.18" r="26.76"/><circle class="cls-8" cx="503.1" cy="354.77" r="26.76"/></g></g></svg>