<svg xmlns="http://www.w3.org/2000/svg" viewBox="0 0 308.48 367.39"><g id="Layer_2" data-name="Layer 2"><g id="수첩"><path d="M307.65,318.92s.11-9.55-9.55-9.55H64.36S51.73,308.6,51.73,318s10.62,9.31,10.62,9.31H288.8v20.22H42.91c-6.07,0-24.1-5.72-24.1-26.7,0-10.49,6.06-19.16,12.2-22.68a34.51,34.51,0,0,1,17.16-4.4H294.52c14.3,0,14-14,14-14v-263C308.48-.19,291.62,0,291.62,0H267.67V112.79s.08,11.46-4.67,11.47-8.21-6.28-8.21-6.28L235.16,81.49,219.21,111.9s-5.94,12.83-11.28,12.36c-5.69-.5-5.53-10.57-5.53-10.57V0H58.49C-4,0,.05,54.93.05,54.93V312.52c0,53.37,54.87,54.87,54.87,54.87H295.34c12.72,0,12.31-12.32,12.31-12.32Z"/></g></g></svg>