<svg xmlns="http://www.w3.org/2000/svg" viewBox="0 0 505.95 506.26"><g id="Layer_2" data-name="Layer 2"><g id="설정"><path d="M504.69,289.13,453,253.32a3.26,3.26,0,0,1-1.39-2.29l-5.81-45a3.3,3.3,0,0,1,.72-2.51l41.11-50.31.49-.58a255.33,255.33,0,0,0-29.94-52.08l-3.15.5-61.93,10.67a3.28,3.28,0,0,1-2.6-.66l-35.66-28a3.31,3.31,0,0,1-1.25-2.3l-5.95-64.69c0-.08,0-.3-.05-.64A254,254,0,0,0,289.54,0c-.72,1.09-1.16,1.74-1.25,1.86L252.57,53.57A3.3,3.3,0,0,1,250.28,55l-44.95,5.88a3.29,3.29,0,0,1-2.51-.71l-50.37-41-.95-.76A254.86,254.86,0,0,0,101,47.5c.16,2.62.27,4.29.32,4.58L112,114a3.33,3.33,0,0,1-.65,2.6l-28,35.68a3.27,3.27,0,0,1-2.29,1.25l-64.69,6-1.51.2A253.88,253.88,0,0,0,0,216.23l2.94,2,51.27,36.35a3.35,3.35,0,0,1,1.37,2.3l5.33,45a3.36,3.36,0,0,1-.75,2.51L18.52,354.26s-.1.13-.2.27a255.4,255.4,0,0,0,30,51.6l3.18-.48,62-10.45a3.3,3.3,0,0,1,2.59.67L151.58,424a3.31,3.31,0,0,1,1.24,2.3l5.68,64.32A253.74,253.74,0,0,0,218,506.26c.59-.76.94-1.22,1-1.32l35.61-51.78a3.32,3.32,0,0,1,2.28-1.41l44.94-6a3.29,3.29,0,0,1,2.51.71l50.47,40.91.13.11a255.91,255.91,0,0,0,51.92-30.33l-.08-.46-12.18-61.66a3.31,3.31,0,0,1,.6-2.62l27.11-36.32a3.31,3.31,0,0,1,2.26-1.31l64.53-7.52,1.66-.18A254.34,254.34,0,0,0,506,290ZM253.25,356.81A104.14,104.14,0,1,1,357.39,252.67,104.13,104.13,0,0,1,253.25,356.81Z"/></g></g></svg>