<svg xmlns="http://www.w3.org/2000/svg" viewBox="0 0 449.78 323.5"><defs><style>.cls-1{fill:#231815;}.cls-2{fill:#e31f1a;}.cls-2,.cls-3{stroke:#231815;stroke-miterlimit:10;stroke-width:2px;}.cls-3{fill:none;}</style></defs><g id="레이어_2" data-name="레이어 2"><g id="레이어_1-2" data-name="레이어 1"><circle class="cls-1" cx="226.56" cy="99.88" r="99.88"/><ellipse class="cls-1" cx="225.07" cy="257.07" rx="162.76" ry="61.23"/><rect class="cls-1" x="62.3" y="257.07" width="325.53" height="65.98"/><polygon class="cls-2" points="342.86 149.96 366.77 71.9 440.14 135.37 342.86 149.96"/><line class="cls-3" x1="343.12" y1="149.31" x2="319.05" y2="216.92"/><path class="cls-1" d="M158.28,285c0-14.78-20.87-80.91-58.21-66.8C59.81,233.38-12.76,319.78,1.94,321.28c22.72,2.32,32.14,2.11,56.84,1.83,6.19-.07,13-.38,21.58-.38C123.39,322.73,158.28,299.74,158.28,285Z"/><path class="cls-1" d="M291.5,285.19c0-14.77,20.86-80.9,58.21-66.8C390,233.6,462.54,320,447.84,321.51c-22.72,2.32-32.14,2.1-56.84,1.82-6.19-.07-13-.37-21.58-.37C326.39,323,291.5,300,291.5,285.19Z"/></g></g></svg>