<svg xmlns="http://www.w3.org/2000/svg" viewBox="0 0 1065.15 142.11"><g id="Layer_2" data-name="Layer 2"><g id="어느_시대_떠남_문구" data-name="어느 시대 떠남 문구"><path d="M56.74,133.74A2.43,2.43,0,0,1,55,133c-.72-.79-1.85-2-.35-44.2.41-13.32.34-19.12.19-21.63A35.29,35.29,0,0,1,51,70.33,37.37,37.37,0,0,1,44.66,74,12.13,12.13,0,0,1,40,75.33l-.43,0a5.48,5.48,0,0,0-1.19-.16,1.28,1.28,0,0,0-.77.19c-.21.17-.83.86-2.07,3.47a29.42,29.42,0,0,1-6.87,9.5c-3.26,3.15-6.36,5.13-9.23,5.88a12.1,12.1,0,0,1-3.87.75,6.33,6.33,0,0,1-.89-.06,21.66,21.66,0,0,1-5.54-1.8c-4.17-1.81-6.79-3.84-8-6.19s-1.46-5.61-.71-10c1-5.1,2.27-8.65,3.75-10.88s4.33-4.69,8.68-7.48c5.31-3.43,9.56-5.1,13-5.1a11.62,11.62,0,0,1,7.69,2.73,12.8,12.8,0,0,1,4.19,7.28l.37,1.8,4.33-3.1c1.14-.73,2.84-1.87,5.16-3.45s3.83-2.61,4.52-3.11l3.51-2.21L55.2,38.88c-.3-7.81-.81-13.07-1.52-15.65C53,20.94,51.86,19.55,50.07,19c-3-.93-4.74-2.48-5.06-4.6s1-4,3.84-5.47a9.69,9.69,0,0,1,4.58-1.56,3.82,3.82,0,0,1,1,.14C56.44,8,58,8.38,59,8.68A7.71,7.71,0,0,1,62.39,11a11.71,11.71,0,0,1,2.23,3.41,26.56,26.56,0,0,1,1.2,5.72c.35,2.66.57,5.38.67,8.07s.25,6.61.45,11.76c.3,10.5.4,22.09.3,34.45s-.4,24-.9,34.66c-.67,14.51-1.21,17.4-1.56,18.31a11.59,11.59,0,0,1-4.4,4.87A7,7,0,0,1,56.74,133.74ZM23.54,64.1c-3.46,0-6.83,3.16-10,9.38a16.43,16.43,0,0,0-2.17,6.34,4.42,4.42,0,0,0,1.36,3.45c1.21,1.21,1.8,1.3,2,1.3s1-.22,3.9-2.57a23.56,23.56,0,0,0,3.73-4.16,23.89,23.89,0,0,0,2.84-5.25,21.53,21.53,0,0,0,1.34-5.29,4.86,4.86,0,0,0,.2-2.33,1,1,0,0,0-.3-.51,7.94,7.94,0,0,0-2.09-.32A6.7,6.7,0,0,0,23.54,64.1Z"/><path d="M54.15,8.63c2,.49,3.47.89,4.46,1.19a6.51,6.51,0,0,1,2.91,2,10.28,10.28,0,0,1,2,3.05,25.77,25.77,0,0,1,1.12,5.43q.52,3.95.67,8T65.76,40q.45,15.78.3,34.39T65.16,109q-.73,16-1.49,17.94a10.34,10.34,0,0,1-3.94,4.32c-1.94,1.29-3.25,1.59-3.95.89q-1.48-1.63,0-43.32.75-24-.3-24.12l-.29.3a27.7,27.7,0,0,1-4.91,4.32,36.11,36.11,0,0,1-6.11,3.57,9.88,9.88,0,0,1-4.46,1.19,3.19,3.19,0,0,0-2.83.3,13,13,0,0,0-2.39,3.87,28.16,28.16,0,0,1-6.62,9.16Q23.17,92,19.16,93a9.61,9.61,0,0,1-4.32.67A21.28,21.28,0,0,1,9.63,92q-5.81-2.53-7.44-5.66c-1.1-2.09-1.29-5.16-.6-9.23q1.49-7.29,3.58-10.42t8.33-7.15q7.59-4.9,12.36-4.91a10.39,10.39,0,0,1,6.92,2.45,11.57,11.57,0,0,1,3.8,6.63l.74,3.57,5.81-4.16q1.63-1,5.13-3.43c2.34-1.59,3.85-2.63,4.55-3.13l4-2.53-.45-15.18q-.45-11.91-1.56-15.93c-.75-2.68-2.21-4.37-4.4-5.06-2.58-.8-4-2-4.24-3.65S47,11.16,49.38,10C51.47,8.77,53.05,8.33,54.15,8.63ZM27.8,64.6a2,2,0,0,0-.9-1.19A8,8,0,0,0,24.37,63q-6.4-.75-11.91,10-2.23,4.32-2.31,6.85a5.65,5.65,0,0,0,1.71,4.32c1.2,1.19,2.19,1.73,3,1.63s2.28-1,4.47-2.83a24.27,24.27,0,0,0,3.94-4.39,24.34,24.34,0,0,0,3-5.51,22.67,22.67,0,0,0,1.42-5.58A5.92,5.92,0,0,0,27.8,64.6Z"/><path d="M79.44,112.12a6.43,6.43,0,0,1-4.69-2c-2-2-2.79-3.76-2.31-5.29s2.11-2.56,5-3.11,10.07-2.77,21-6.5A207.16,207.16,0,0,1,150,84.86c3.81-.22,6.93-.34,9.26-.34a33.06,33.06,0,0,1,4.15.2,6.56,6.56,0,0,1,5.27,3.3l.07.11,0,.13a18.6,18.6,0,0,0,.84,2.53,2,2,0,0,1,0,1.63,3.48,3.48,0,0,1-2.29,1.67,24.74,24.74,0,0,1-5.4,1c-2.08.2-5.36.4-9.73.6a154.68,154.68,0,0,0-23.27,2.66A278.06,278.06,0,0,0,101,106.08l-1.33.44c-10.7,3.33-16.86,5.12-18.85,5.47A7,7,0,0,1,79.44,112.12ZM101.79,75a7.13,7.13,0,0,1-3.21-1.4c-1.31-.91-2.08-2.69-2.36-5.46-.26-2.44-.38-8.77-.38-19.33,0-19.8.83-21.34,1.18-22a2.17,2.17,0,0,1,1.88-1.05c1.08,0,2.42.7,4.24,2.19a3.75,3.75,0,0,0,.64.52,9.7,9.7,0,0,1,3.4,5.2c.37,1.67.7,6.12,1,13.61l.52,13.25,9.92-5.6c7.18-4,12.1-7,14.65-8.73a10.53,10.53,0,0,1,5.94-2,8.27,8.27,0,0,1,1.4.12c3.38.55,4.3,2.69,4.48,4.39a4.92,4.92,0,0,1-2,4.6,89.76,89.76,0,0,1-10.15,6.37C125.47,63.94,120,67,116.57,68.92a98.14,98.14,0,0,1-9.11,4.51c-3.38,1.43-4.65,1.6-5.31,1.6Z"/><path d="M163.2,85.89a5.44,5.44,0,0,1,4.39,2.68,22,22,0,0,0,.89,2.68q.45,1.05-1.56,1.71a23.55,23.55,0,0,1-5.14,1c-2.08.2-5.31.4-9.67.6a155.48,155.48,0,0,0-23.45,2.68A280.38,280.38,0,0,0,100.6,105l-1.34.45q-15.8,4.91-18.69,5.43a5.34,5.34,0,0,1-5-1.56q-5.06-5.07,2.09-6.41,4.6-.89,21.14-6.55A205.48,205.48,0,0,1,150,86Q160,85.46,163.2,85.89ZM98.06,27.38q.9-1.34,4.32,1.49a4.92,4.92,0,0,0,.75.6,8.49,8.49,0,0,1,2.9,4.46q.52,2.39,1,13.4l.59,15.19L119.21,56q10.86-6.11,14.73-8.79a8.87,8.87,0,0,1,6.48-1.71q3.2.53,3.5,3.35a3.84,3.84,0,0,1-1.64,3.58,89.13,89.13,0,0,1-10,6.25Q121.14,65.06,116,67.88a97.21,97.21,0,0,1-9,4.46c-2.59,1.1-4.27,1.59-5.07,1.49a6,6,0,0,1-2.67-1.19q-1.5-1-1.87-4.61T97,48.82Q97,29.32,98.06,27.38Z"/><path d="M282.87,134.53a2.2,2.2,0,0,1-1.11-.28l-.12-.08-.11-.1c-.52-.52-.93-.94-1.46-31.85-.34-20.15-.47-37.82-.37-52.51.1-15.9-.39-25.86-1.44-29.6-1.27-4.37-1.27-6.88,0-8.15a5.68,5.68,0,0,1,4.13-1.76,8.25,8.25,0,0,1,3.29.77,10.18,10.18,0,0,1,5.71,6.68c.4,1.14.93,4.18.72,17a170.68,170.68,0,0,1-1.27,21.08c-.2,1.23-.1,6.91,1.49,27,1.2,17.28,1.42,29.69.67,36.92-.8,7.72-2.95,12.24-6.58,13.84A9.26,9.26,0,0,1,282.87,134.53Zm-59.6-31.08c-1.71,0-2.72-.29-3.29-.94a1.8,1.8,0,0,1-.41-1.45c.09-.76.61-2,5.57-6.65a89.5,89.5,0,0,0,10.55-13.2,146,146,0,0,0,9.82-17c4.79-9.45,5.31-11.73,5.31-12.27,0-1.48.86-3.28,2.64-5.51,1.94-2.49,2.75-3.08,3.42-3.24l.13,0h.28c.53,0,1.4.16,3.85,1.32,2.41,1,3.66,2.38,3.66,4.19,0,1.09-.56,3.57-4.87,13.14-3,6.55-4,9.08-4.28,10,.89.42,3.41,1.61,10.09,4.62C275.64,80.8,277,82.84,277,84.4c0,1.39-.72,3.72-5.57,3.72a33,33,0,0,1-11.37-2.61c-4.49-1.87-7.87-2.82-10.07-2.82-2,0-2.28.78-2.38,1.07-1.38,3.82-4.86,8-10.64,12.65S226.66,103.45,223.27,103.45Z"/><path d="M257.14,44.36c.44-.1,1.61.29,3.5,1.19s3,1.83,3,3.12-1.59,5.61-4.77,12.66-4.76,10.87-4.47,11.16,3.82,1.89,10.87,5.07,10.57,5.35,10.57,6.84q0,2.53-4.39,2.53a31.54,31.54,0,0,1-10.94-2.53q-12.51-5.2-14-1-1.94,5.36-10.27,12.13t-12.95,6.78c-1.79,0-2.63-.35-2.53-1s1.83-2.78,5.21-6a90.67,90.67,0,0,0,10.72-13.4,145.94,145.94,0,0,0,9.9-17.12Q252,54,252,52c0-1.19.8-2.78,2.38-4.77Q256.47,44.51,257.14,44.36ZM285.2,12.05a9,9,0,0,1,5.06,6c.6,1.68.82,7.22.67,16.59a171.65,171.65,0,0,1-1.26,20.92q-.45,2.83,1.49,27.25,1.79,25.91.67,36.69T286,132.34c-1.89.9-3.08,1.19-3.58.9s-.77-10.75-1.11-31.05-.48-37.78-.38-52.48q.15-24.1-1.49-29.92-1.63-5.65-.29-7C280.68,11.21,282.72,11,285.2,12.05Z"/><path d="M369.32,138.29a4.25,4.25,0,0,1-3.54-1.49c-.44-.56-1.07-1.72-1.58-5.34a78.4,78.4,0,0,1-.46-11q.08-7.06.08-19.11l.4-27.77-3.1,3.53c-4.89,5.45-6.82,6.47-7.85,6.76,0,0-1.19,1-1.83,9.53-.92,10.12-1.53,11.09-1.82,11.55-.77,1.3-2.5,2.16-5.27,2.62l-5,1,.49-17.57c.49-11.62,1.1-19.73,1.8-24.12a139.16,139.16,0,0,0,1-18.13c0-10.28.71-11.51,1.63-12a2.18,2.18,0,0,1,1.09-.27c1.13,0,2.69.69,5.06,2.24a11.59,11.59,0,0,1,3.67,3.64,16.31,16.31,0,0,1,1.18,5.9,83.41,83.41,0,0,1-.75,14.23c-.31,2.38-.51,4-.65,5.22q2-1.71,4.23-3.6l6-5.29.43-19.73c.37-16.68-.33-22.42-1-24.3-.86-2.88-.92-3.87-.88-4.43a4.17,4.17,0,0,1,1.87-2.85A5.87,5.87,0,0,1,368,6.36a6.21,6.21,0,0,1,2.16.41,8.55,8.55,0,0,1,4.51,4.45c.55,1,1.34,3.56,1.61,13.15.2,6.93.3,22.52.3,46.34-.2,37.53-.5,57-.91,59.59a14.51,14.51,0,0,1-2.16,6A5.09,5.09,0,0,1,369.32,138.29ZM303.8,103.45l.92-7a122.85,122.85,0,0,0,1.71-20.36c-.18-6-1.27-6.44-1.28-6.44-1.23,0-2.61-.77-4.25-2.35s-2.44-3-2.44-4.19a2.88,2.88,0,0,1,.59-1.66,5.68,5.68,0,0,1,1.22-1.23,6.75,6.75,0,0,1,1.61-.89c1.93-.78,6.84-3.46,14.58-8,6.31-3.65,10.56-5.76,13-6.44a7.69,7.69,0,0,1,2-.3,5,5,0,0,1,4.42,2.53,4.24,4.24,0,0,1-.6,5.68c-1.39,1.45-4.66,3.5-10,6.26a55.5,55.5,0,0,0-7.91,4.55c-1.11.92-.94,1.45-.88,1.66.52,1.69,1,5.82,1.38,12.62l.47,8.12,4.21-3a93.74,93.74,0,0,0,7.48-5.86,5,5,0,0,1,3.38-1.48,4.42,4.42,0,0,1,1.47.26c1.19.43,2.63,1.51,2.79,4.24a5.77,5.77,0,0,1-1.37,4.53,55.17,55.17,0,0,1-5.86,5.81A149.85,149.85,0,0,1,317.4,101a14.47,14.47,0,0,1-7.93,2.5Z"/><path d="M329.79,46.07q3.49-1,5.14,1.71a3.08,3.08,0,0,1-.45,4.24q-1.94,2-9.68,6a56.14,56.14,0,0,0-8.11,4.69c-1.14.95-1.56,1.91-1.27,2.91Q316.17,68,316.76,78l.6,10.27L323.31,84a95.14,95.14,0,0,0,7.6-6,3.44,3.44,0,0,1,3.64-1c1.24.45,1.91,1.52,2,3.2A4.69,4.69,0,0,1,335.45,84a58.35,58.35,0,0,1-5.73,5.66,152.7,152.7,0,0,1-13,10.34,13.28,13.28,0,0,1-7.29,2.31h-4.32l.74-5.66a122.54,122.54,0,0,0,1.72-20.54c-.15-5.06-1-7.6-2.46-7.6-.89,0-2-.66-3.42-2s-2.09-2.45-2.09-3.34a1.69,1.69,0,0,1,.37-1,4.46,4.46,0,0,1,1-1,6.19,6.19,0,0,1,1.34-.75q3-1.18,14.74-8Q326.28,47,329.79,46.07Zm40-38.19a7.36,7.36,0,0,1,3.87,3.87q1.2,2.23,1.49,12.66t.3,46.3q-.3,55.68-.89,59.4a13.58,13.58,0,0,1-1.94,5.43,3.9,3.9,0,0,1-3.27,1.57,3.14,3.14,0,0,1-2.61-1q-.81-1-1.34-4.77a75.93,75.93,0,0,1-.44-10.79q.06-7.08.07-19.13l.45-31-5.21,6q-5.22,5.81-7.3,6.41t-2.68,10.57q-.88,9.82-1.64,11c-.59,1-2.08,1.69-4.46,2.09l-3.58.74L341,91.1q.74-17.41,1.79-24a140.18,140.18,0,0,0,1-18.31q0-10.41,1-11c.69-.39,2.33.25,4.91,1.94a10.56,10.56,0,0,1,3.28,3.2,16.07,16.07,0,0,1,1,5.44,81.73,81.73,0,0,1-.74,14,78.61,78.61,0,0,0-.9,8.19c1.89-1.69,4-3.52,6.4-5.51l6.41-5.66.44-20.24q.45-20.4-1-24.72a14.24,14.24,0,0,1-.82-3.94,3.06,3.06,0,0,1,1.42-2A4.51,4.51,0,0,1,369.76,7.88Z"/><path d="M392.19,118.64c-5.34,0-8.35-1-9.47-3-.71-1.26-1.57-3.12-.74-4.58.52-.66,1-1.24,12.73-3.4,15.84-2.86,25.94-5,30-6.5,1.13-.5,2-2.07,2.51-4.63,1.72-10.58,2.32-15.07,2.5-16.94-.71.25-1.9.72-3.84,1.58a22.9,22.9,0,0,1-9,2.41h-.3c-2.75,0-4.8-.83-6.08-2.47-.83-.88-2.09-3.32-2.78-13.3l-.81-11.69,5.66-2.57a132.76,132.76,0,0,0,13-6.79,31.54,31.54,0,0,0,6.19-4.08,7.63,7.63,0,0,0,2.14-3.49,33.23,33.23,0,0,0,.77-7.22c0-.77,0-1.36,0-1.8-3.48,2.83-10,6.6-19.47,11.23a20.41,20.41,0,0,1-5.53,2.05l-.45,0a9.34,9.34,0,0,1-4-1.18c-3.43-1.84-4.71-3.8-3.83-5.84.73-1.72,3.2-3.43,7.76-5.39,5-2.24,11.64-5.77,19.83-10.51,10.08-5.91,12.5-6.71,13.54-6.71a5.06,5.06,0,0,1,3.17,1.65c1.66,1.53,2.46,4.09,2.41,7.6-.05,3.23-.84,8.81-2.33,16.58-1,5-2,8.21-2.83,9.68s-2.78,2.93-5.62,4.13a71.06,71.06,0,0,0-9.81,5.28c-5.25,3.34-6.69,3.92-7.3,4-.17.3-.53,1.27-.78,4.15a14.3,14.3,0,0,0,.1,3.79c0,.08.11.13.36.13.56,0,3.27-.62,16.5-6.45,8-3.53,13.13-5.51,15.72-6a10.1,10.1,0,0,1,2-.21,5.36,5.36,0,0,1,4.58,2.16c.85,1.24,1.76,3.7-1.42,6.63-2,1.89-5.63,4-11,6.32s-6.53,3.1-6.78,3.32c0,0-.06.29.44,1,1.22,1.77,1.84,4.32,1.84,7.58a23.66,23.66,0,0,1-1.73,9,29.34,29.34,0,0,0-1.18,3.11,81.51,81.51,0,0,0,9.25-1.44c6.59-1.1,13.41-1.93,20.3-2.47,3.63-.29,6.62-.44,8.87-.44a20.33,20.33,0,0,1,4.7.39,7.66,7.66,0,0,1,5,3.69,4.54,4.54,0,0,1-.26,5.51c-.73,1-2.64,2.06-11,2.06a170.76,170.76,0,0,0-21.14,1.63c-3.89.58-7.23,1.13-9.91,1.63s-5.53,1.14-8.55,1.92l-13.25,3.42c-10.52,3-19.52,4.74-26.72,5.25C394.74,118.59,393.4,118.64,392.19,118.64Z"/><path d="M442.56,15a4.12,4.12,0,0,1,2.38,1.34q2.08,1.93,2,6.7t-2.31,16.37q-1.49,7.31-2.67,9.31T436.9,52.4a70.78,70.78,0,0,0-10,5.35q-6.1,3.89-7,3.88c-.79,0-1.34,1.73-1.64,5.21a15.81,15.81,0,0,0,.15,4.24,1.38,1.38,0,0,0,1.49,1q2.08,0,17-6.55,11.76-5.22,15.49-6c2.48-.5,4.26,0,5.36,1.49s.67,3.27-1.27,5.06S451,69.91,445.84,72.2a45.9,45.9,0,0,0-7.08,3.49c-.64.55-.57,1.42.23,2.61q1.63,2.39,1.63,6.92A22.49,22.49,0,0,1,439,93.78q-1.78,4.17-1.34,4.62t10.72-1.34q9.83-1.64,20.17-2.46t13.18-.07A6.51,6.51,0,0,1,486,97.65a3.4,3.4,0,0,1-.14,4.17c-.8,1.1-4.17,1.64-10.13,1.64a171.08,171.08,0,0,0-21.29,1.64q-6,.89-10,1.64c-2.68.49-5.56,1.14-8.64,1.93l-13.25,3.43q-15.78,4.45-26.5,5.21c-7.14.49-11.27-.25-12.35-2.24q-1.35-2.37-.75-3.42.6-.75,11.91-2.83,24-4.32,30.22-6.55,2.39-1,3.28-5.51,3-18.32,2.53-18.61t-5.51,1.94a21.51,21.51,0,0,1-8.56,2.3c-2.53.06-4.34-.62-5.43-2s-2-5.5-2.53-12.65l-.75-10.87,4.91-2.23a133.89,133.89,0,0,0,13.1-6.85,32.7,32.7,0,0,0,6.41-4.24,8.86,8.86,0,0,0,2.45-4,33.16,33.16,0,0,0,.82-7.52q.15-3.72-.3-3.72a3.18,3.18,0,0,0-1.49.89Q429,33.34,414.72,40.34a19.75,19.75,0,0,1-5.13,1.93,7.34,7.34,0,0,1-3.8-1q-4.17-2.23-3.28-4.32t7.15-4.76q7.59-3.42,19.95-10.57Q440.77,15,442.56,15Z"/><path d="M612.58,129.36a2.53,2.53,0,0,1-2.4-1.4c-.61-1.23-1.27-5.33-.87-26.31,0-1.08.05-2.73.15-4.94L610,68.2l-5.35,4c-4.32,3.42-5.35,4.83-5.59,5.32a6.18,6.18,0,0,1,1.25,6.12,12.93,12.93,0,0,1-4.73,6.41c-3.89,3.18-7.1,5.19-9.79,6.14a24.55,24.55,0,0,1-8,1.16c-.7,0-1.41,0-2.15-.05-4.69-.14-6-.49-6.63-.79a3,3,0,0,1-1.64-3.24l-4.1,4a57.91,57.91,0,0,1-4.43,3.89,11.48,11.48,0,0,1-3.17,1.75,12.94,12.94,0,0,1-3.94.5c-3.29,0-5.29-.77-6.11-2.35-.47-.89-1-2.72.18-8.3a51.5,51.5,0,0,0,.88-13.69c-.27-5.48-.6-6.81-.74-7.13s-.55-.83-2.16-1.34a9.7,9.7,0,0,1-4.23-2.11,5.35,5.35,0,0,1-2-3.51c0-1,.32-1.76,6.76-4.9a133.83,133.83,0,0,0,13.1-7.66c5-3.22,8.54-4.77,10.86-4.77a3.25,3.25,0,0,1,3.26,2c1.44,3.84-1.49,8-8.95,12.61a35.07,35.07,0,0,0-5.23,3.78c-.75.75-.6,1.2-.53,1.39a96.8,96.8,0,0,1,1.4,12l.49,7.84,4.39-2c3.65-1.64,4.54-2.47,4.75-2.76s.82-1.45,1.43-4.72c.47-4.71.72-9.13.72-13l.16-8.33,12.55-6.27c6.64-3.2,10.95-4.75,13.22-4.75a2.85,2.85,0,0,1,1.91.58c1,.88,1.41,2.48,1.17,4.89a6,6,0,0,1-2.1,4,33.51,33.51,0,0,1-5.8,3.8c-5.22,3-7.25,3.81-8.3,4-.23.57-.73,2.57-.92,9.31-.1,7.15-.57,11.67-1.43,13.8-.13.36-.23.65-.29.87a39.7,39.7,0,0,0,6-3.35c5.15-3.34,6.2-4.45,6.41-4.77,0,0-.2-.51-1.64-1.41-2.42-1.57-3.49-3.31-3.22-5.19,0-.48.38-1.18,1.4-2.33a37.65,37.65,0,0,1,3.15-3.08c1.32-1.16,2.75-2.31,4.25-3.42.64-.42,1.46-1,2.54-1.79l5.08-3.58A18.88,18.88,0,0,0,607.23,55a15.09,15.09,0,0,0,2-2.5,18,18,0,0,0,1-3.18A18.47,18.47,0,0,0,610.8,45c0-1.34.1-3.57.3-6.63a28.71,28.71,0,0,1,.16-3.49c.18-7.47.21-12.54.06-15A14.67,14.67,0,0,0,610,14.22c-1.28-2.43-1.46-3.23-1.46-3.73,0-.87.57-1.7,1.93-2.79a9.85,9.85,0,0,1,6.07-2h.28c2.52.06,4.37.91,5.48,2.52.8.86,1.7,3.74,1.7,17.65a230.53,230.53,0,0,1-1.5,27.68c-.68,6-1,18.9-1,38.42q-.15,8.2-.15,13c0,3.18-.07,6.26-.22,9.14s-.33,5.06-.54,6.44a16.78,16.78,0,0,1-1,3.92,8.57,8.57,0,0,1-7,4.91Z"/><path d="M616.82,6.91q3.21.07,4.54,2,1.49,1.65,1.49,17a229.82,229.82,0,0,1-1.49,27.54q-1,9.08-1,38.56-.15,8.19-.15,13c0,3.18-.07,6.2-.22,9.08s-.32,5-.52,6.33a16.23,16.23,0,0,1-1,3.65,6.28,6.28,0,0,1-1.42,2.3,6,6,0,0,1-1.93,1.12q-3.14,1.48-3.87,0-1.2-2.39-.75-25.76c0-1.09,0-2.72.15-4.91l.6-31-7.3,5.51q-7.14,5.67-6,6.85a4.94,4.94,0,0,1,1.19,5.21,11.66,11.66,0,0,1-4.32,5.81q-5.65,4.62-9.45,6a25.9,25.9,0,0,1-9.75,1c-3.38-.1-5.44-.32-6.18-.68a1.9,1.9,0,0,1-1-2.15,9.1,9.1,0,0,0-.15-2.68l-6,5.8a57.35,57.35,0,0,1-4.32,3.8,10.08,10.08,0,0,1-2.83,1.56,11.5,11.5,0,0,1-3.57.45q-4.17,0-5.07-1.71t.3-7.52a52.47,52.47,0,0,0,.9-14q-.3-6.26-.82-7.52t-2.91-2a8.76,8.76,0,0,1-3.79-1.87,4.19,4.19,0,0,1-1.56-2.75q0-.74,6.1-3.72a138.07,138.07,0,0,0,13.25-7.74q10.86-7,12.36-3.28,1.78,4.77-8.49,11.17a38.29,38.29,0,0,0-5.43,3.94,2.44,2.44,0,0,0-.82,2.61,102.07,102.07,0,0,1,1.34,11.76l.59,9.53,6-2.68c2.88-1.29,4.61-2.33,5.21-3.13s1.14-2.53,1.64-5.21q.74-7.29.74-13.25l.15-7.59,11.91-6q12.06-5.81,13.84-4.31,1,.89.75,3.87a4.8,4.8,0,0,1-1.71,3.2,32.44,32.44,0,0,1-5.59,3.64q-6.69,3.89-8.18,3.88t-1.64,10.42q-.15,10.42-1.34,13.4c-.7,1.78-.65,2.68.15,2.68q1.63-.15,7.29-3.73c4-2.57,6.23-4.29,6.78-5.13s-.13-1.86-2-3-2.88-2.63-2.68-4c0-.3.37-.87,1.11-1.72a37,37,0,0,1,3.05-3q1.95-1.71,4.17-3.35c.6-.4,1.44-1,2.54-1.79,2.38-1.69,4.06-2.88,5.06-3.57a20.42,20.42,0,0,0,3.27-3A17.15,17.15,0,0,0,610.27,53a20.77,20.77,0,0,0,1-3.42A19.36,19.36,0,0,0,612,45q0-1.94.3-6.55a29.25,29.25,0,0,1,.15-3.42q.3-11.46.07-15.19a15.89,15.89,0,0,0-1.41-6.1,10.7,10.7,0,0,1-1.34-3.2c0-.45.5-1.07,1.49-1.86A8.65,8.65,0,0,1,616.82,6.91Z"/><path d="M676.44,117.72a7.72,7.72,0,0,1-2.64-.49l-.41-.14c-1-.33-2.59-1.29-2.59-4.1,0-1.66.53-6.82,1.64-15.78a7.84,7.84,0,0,1,.08-1.29c.05-.33.1-.72.14-1.15s.14-1,.24-1.52c.68-5.81,1.18-10.9,1.47-15,.15-2,.2-3.34.22-4.19-1.75,1.19-5.55,3.86-13.61,9.7-9.83,7.11-15.89,11.6-18,13.35a10.83,10.83,0,0,1-6.54,2.68,5.85,5.85,0,0,1-.73,0l-4.21-.4.47-18.07c.29-11.14-.19-19-1.44-23.32-1.84-6.19-1.6-7.84-1.06-8.69.61-1.06,2-1.6,4.2-1.6a8.92,8.92,0,0,1,4.88,1.23c1,.58,2.39,2.21,3.8,9.4A82.26,82.26,0,0,1,643.83,74a62.5,62.5,0,0,0,.33,8.16c.85-.48,2.7-1.63,6.59-4.36,19.36-13.73,22.58-15,23.64-15.09.26-.4,1-2,1.4-8.44a90.5,90.5,0,0,0-.37-17.49c-1.25-8.33-.61-10.76,0-11.87.89-1.65,1.6-2.46,2.39-2.72l.18-.06.41,0a7.16,7.16,0,0,1,3.29,1.31c5.82,3.13,7.58,15.68,5.33,38.35-.41,4-.58,6.2-.64,7.37,1.06-.52,3.12-1.61,7.06-3.89a22.7,22.7,0,0,1,2.25-1.43l2.17-1.2q1-.51,1.83-1c.58-.34,1.07-.63,1.45-.87l1-.61a3,3,0,0,1,.77-.35,2.07,2.07,0,0,1,.8-.15c1.09,0,2.38.78,4.18,2.53,1.57,1.53,3.26,3.51,2.39,5.25-.3.93-1.63,2.61-8.8,6.74a97.93,97.93,0,0,0-12,8.36L685.32,86,684,100a101.55,101.55,0,0,1-1.44,12.07,7.42,7.42,0,0,1-2.63,4.57A6.28,6.28,0,0,1,676.44,117.72Z"/><path d="M678.16,23.29c.44-.15,1.41.22,2.9,1.12q8,4.32,4.76,37.22-.89,8.77-.59,9.08T694,66.24a24.44,24.44,0,0,1,2.24-1.41c.79-.45,1.51-.85,2.15-1.19s1.27-.7,1.87-1,1.09-.64,1.48-.89l1-.6a1.42,1.42,0,0,1,.52-.22c.69-.39,2,.3,3.8,2.09s2.55,3.07,2.16,3.87q-.6,1.78-8.34,6.25a96.67,96.67,0,0,0-12.21,8.49l-4.46,3.87-1.34,14.44a101.14,101.14,0,0,1-1.42,11.91,6.31,6.31,0,0,1-2.16,3.87,5.35,5.35,0,0,1-5.06.45.56.56,0,0,0-.44-.15c-1.2-.4-1.79-1.39-1.79-3s.54-6.8,1.64-15.63a9.21,9.21,0,0,1,.07-1.27c0-.35.1-.74.15-1.19s.12-.92.22-1.41q1.05-8.94,1.49-15.19t0-6.25q-.45,0-15.26,10.72T642.2,96.17c-2.28,1.78-4.41,2.58-6.4,2.38l-3.12-.3.44-17q.45-17-1.49-23.67t-1.19-7.75c.4-.69,1.46-1,3.2-1a7.81,7.81,0,0,1,4.24,1q1.8,1.05,3.28,8.64A80.43,80.43,0,0,1,642.65,74c0,6.46.3,9.68.89,9.68s3.23-1.64,7.89-4.91q21-14.9,23.23-14.89,1.64,0,2.31-9.53a90.46,90.46,0,0,0-.38-17.72q-1.33-8.92-.15-11.16C677.14,24.16,677.71,23.44,678.16,23.29Z"/><path d="M757.26,125.06a2.89,2.89,0,0,1-1.94-.6c-1.81-2,.68-5.08,3-7.53q2.36-2.3,4-4.12h-.3a8.12,8.12,0,0,1-1.53-.16,16.88,16.88,0,0,1-6.34-3L751,107.46l-1.07,2.43a35.46,35.46,0,0,1-3.4,6c-2,2.41-5.17,4.28-9.54,5.64a10.24,10.24,0,0,1-2.79.51c-1.71,0-2.32-1-2.32-1.93,0-.45,0-.92,4.18-8.19,3.88-6.5,6.64-14.73,8.2-24.46a35.67,35.67,0,0,1,1.08-5.07,2.91,2.91,0,0,1,3-2.22,4.93,4.93,0,0,1,.75.06A8.09,8.09,0,0,1,753.68,83a6.7,6.7,0,0,1,2.23,3.55,22,22,0,0,1-.13,5.88l-.67,5.32,4.72,3.91a18.07,18.07,0,0,1,4.76,5.35,8.22,8.22,0,0,1,.8,2.18q.27-.41.48-.75a37.27,37.27,0,0,0,3.22-9c3.11-12.36,5.13-19.53,6.16-21.91,1.26-2.6,2.92-3.14,4.09-3.14,1.42,0,2.94.75,4.64,2.29,3,2.64,3.23,6.95.74,12.8-1.41,3.3-1,4.21-.89,4.36s.54.25.85.25c1.1,0,3.05.77,12.44,10a90.81,90.81,0,0,1,7.84,8.07c1.57,2,2.12,3.6,1.68,4.91a3.83,3.83,0,0,1-3.85,2.69,9.4,9.4,0,0,1-3.27-.7c-3.21-1.21-6.82-3.75-11-7.76-6.4-6-8.47-6.67-9-6.69a4.63,4.63,0,0,0,0,.47c0,1.92-.93,4.41-2.85,7.6S773,118,771.2,119.17a40.41,40.41,0,0,1-9.12,4.76A15.53,15.53,0,0,1,757.26,125.06Zm-26.92-42.6c-2.85,0-4.41-.81-4.67-2.41-.13-.84,0-2.36,2.28-6.76a120.92,120.92,0,0,0,5.23-11.59,76,76,0,0,0,3.74-11.05l.13-.52-1.37.77a44.68,44.68,0,0,1-9,3.81,18.53,18.53,0,0,1-4.43.83,4.26,4.26,0,0,1-.54,0,7,7,0,0,1-3.43-1.74c-2.44-2.2-3.21-4.29-2.34-6.24s2.89-3.11,6.37-4a56,56,0,0,0,10.35-4.09,61.39,61.39,0,0,0,9.92-5.83c2-1.44,3.49-2.1,4.71-2.1,1.4.07,2.92.89,5,2.58l3.48,2.74-5.38,14.61c.22-.28.45-.57.72-.86a27.21,27.21,0,0,1,7.43-5.74c5.74-3.21,9.38-5.59,10.83-7.09a7.83,7.83,0,0,0,2-5.73c0-3.72.6-6,1.88-7.13a4.42,4.42,0,0,1,3.24-1.53c1.5,0,3,.82,4.52,2.5a7.45,7.45,0,0,1,1.79,3.89,33.89,33.89,0,0,1-.14,7.14c-.3,3.78-.85,8.37-1.65,13.62s-1.65,10-2.54,14c-1.31,5.87-1.93,6.87-2.41,7.35-.91.91-2.49,1.44-4.84,1.61-.44,0-.84,0-1.22,0a5.25,5.25,0,0,1-3.53-1c-.78-.49-1.25-1.28.6-11.58l1.23-7.41-4.12,2.25c-3.45,2-6.35,3-8.84,3a8.67,8.67,0,0,1-1.63-.15c-2.57-.55-4-1.53-4.5-3A2.9,2.9,0,0,1,749,55c-2.58,6.81-4.66,11.92-6.19,15.25-2.11,4.59-4,7.67-5.66,9.41A9.14,9.14,0,0,1,730.34,82.46Zm58.21-8.06a5,5,0,0,1-3.13-1.29l-.69-.68a5.73,5.73,0,0,1-1.61-4A59.76,59.76,0,0,1,784,60c.88-6,1.33-15.69,1.33-28.86,0-9.12-.12-14.76-.36-16.76-.2-1.66-.7-2.75-1.48-3.24-1.87-1.25-2.77-2.5-2.77-3.83s.84-3,2.58-4.7S786.54,0,788,0s3,.71,5,2.18a8.38,8.38,0,0,1,2.72,4.17A53.32,53.32,0,0,1,797,15.06c2,21.18,1.43,37.9-1.67,49.69C793.6,71.34,791.44,74.4,788.55,74.4Z"/><path d="M747.38,32.67q1.41.07,4.1,2.31l2.82,2.23-3.72,10.12q-5.8,15.8-8.85,22.41t-5.44,9.08a7.94,7.94,0,0,1-5.95,2.46c-2.19,0-3.35-.47-3.5-1.42s.57-3,2.16-6a123.42,123.42,0,0,0,5.28-11.68,78.52,78.52,0,0,0,3.8-11.24l.74-3.13-3.72,2.08a43.68,43.68,0,0,1-8.78,3.73,14.31,14.31,0,0,1-4.47.74A6.07,6.07,0,0,1,719,52.84c-2-1.78-2.65-3.4-2-4.84s2.51-2.55,5.59-3.35a57,57,0,0,0,10.57-4.16,62.36,62.36,0,0,0,10.12-6Q746,32.6,747.38,32.67Zm1.49,48.76a7,7,0,0,1,4,2.38,5.67,5.67,0,0,1,1.93,3,21.14,21.14,0,0,1-.15,5.5l-.74,6,5.21,4.32a17.26,17.26,0,0,1,4.47,5c.79,1.54.94,2.66.44,3.35s-1.56.9-3.2.6a15.94,15.94,0,0,1-5.88-2.83l-4.46-3-1.64,3.72a34,34,0,0,1-3.28,5.81q-2.68,3.27-8.93,5.21c-2.38.7-3.57.6-3.57-.29q0-.6,4-7.6,6-10,8.33-24.86a34.12,34.12,0,0,1,1-4.91C746.71,81.68,747.53,81.23,748.87,81.43Zm31.19-54.79a6.21,6.21,0,0,1,1.49,3.27,32.74,32.74,0,0,1-.15,6.85q-.45,5.67-1.64,13.55t-2.53,13.92c-.89,4-1.59,6.28-2.08,6.78-.7.69-2.06,1.11-4.1,1.26s-3.35-.07-3.94-.67q-.75-.45,1-10.42l1.64-9.83-6.25,3.43q-6,3.42-9.68,2.68-6.25-1.35-1.94-6.11a26.8,26.8,0,0,1,7.15-5.51q8.79-4.91,11.09-7.29A9,9,0,0,0,772.47,32c0-3.28.49-5.36,1.49-6.25Q776.63,22.92,780.06,26.64Zm3.13,50.92q3.87,3.42.45,11.46-2.68,6.26,1,6.25,1.79,0,11.61,9.68a91.52,91.52,0,0,1,7.74,8q1.94,2.46,1.49,3.8c-.69,2-2.56,2.4-5.58,1.27s-6.58-3.65-10.65-7.52q-11-10.42-11-5.36,0,2.54-2.67,7a19.78,19.78,0,0,1-5.07,6.1,39,39,0,0,1-8.85,4.61c-3,1.1-4.9,1.35-5.59.75q-1.19-1.34,3.13-5.81,6-5.81,7.67-8.71a38.73,38.73,0,0,0,3.35-9.3q4.6-18.31,6.1-21.74Q778.58,73.4,783.19,77.56ZM788,1.18q1.71,0,4.24,1.94a7.14,7.14,0,0,1,2.31,3.57,52.58,52.58,0,0,1,1.26,8.49q3,31.71-1.63,49.27-3.13,11.77-8,7.75l-.6-.6a4.5,4.5,0,0,1-1.26-3.2,57.7,57.7,0,0,1,.81-8.26q1.35-9.07,1.34-29,0-13.84-.37-16.9t-2-4.1c-1.49-1-2.23-1.93-2.23-2.83q0-1.63,2.23-3.87C785.57,1.93,786.88,1.18,788,1.18Z"/><path d="M861.51,116.55a15.22,15.22,0,0,1-6.42-6.73,21.87,21.87,0,0,1-2.67-9.6,42.63,42.63,0,0,0-1.16-9,17,17,0,0,1-.84-4.8,3.42,3.42,0,0,1,.7-2c-8.06,3.47-16.13,6.63-24.07,9.41a22.21,22.21,0,0,1-6.6,1.12,14.49,14.49,0,0,1-3.21-.34c-3.9-.89-5-3-5.3-4.69a14.11,14.11,0,0,1,.07-1.73,3.67,3.67,0,0,1,.56-1.64,2.68,2.68,0,0,1,1.36-1.07,232.52,232.52,0,0,0,31.16-11.27c11-4.65,22.44-9.07,34-13.13,5.33-1.84,9.14-3.55,11.33-5.07,3-1.78,5-2.59,6.48-2.59s3,.88,5,2.7,2.9,3.44,2.9,4.88c0,1.12-.66,2.26-9,5.92-5.56,2.43-12.5,5.12-20.63,8a189.85,189.85,0,0,0-17.92,6.81l-1.73.77h.21A6.28,6.28,0,0,1,859.63,84c2.17,1.72,3.54,4.51,4.08,8.28a68.65,68.65,0,0,0,2,9.88c.89,3.08,1.47,3.88,1.65,4.07h.17c.86,0,3-.29,8.6-1.68,6.44-1.69,12.42-3.09,17.77-4.18a49.17,49.17,0,0,1,8.61-1.05,10.07,10.07,0,0,1,2.41.24c1.6.41,3.49,1.73,3.49,5.69a5.54,5.54,0,0,1-2.69,4.78,12.07,12.07,0,0,1-6.68,1.61c-2.45,0-8.47,1.24-17.86,3.68l-15.06,3.84Zm-12-53.82c-2.85,0-4-1.41-4.49-2.6s-.69-3.69-.69-15.18c0-8.58-.58-15-1.74-19.18-1.83-6.72-1.83-7.3-1.83-7.62,0-.51.24-1.43,1.79-1.81a6.33,6.33,0,0,1,1.6-.17q.57,0,1.26.06a25.26,25.26,0,0,1,3.52.63c2.11.62,3.7,2.47,4.77,5.52,1,2.79,1.86,7.4,2.67,14.09l1.13,9.35,11-5.5c6.61-3.36,11.05-5.19,13.59-5.62a7.64,7.64,0,0,1,1.23-.1,4.65,4.65,0,0,1,4.7,3.59c.65,2.29,0,3.63-.7,4.37-.52.55-1.78,1.58-6.72,4.18-10.93,6-18.16,10.2-21.48,12.44a19.36,19.36,0,0,1-8.33,3.47A12,12,0,0,1,849.56,62.73Z"/><path d="M896.93,54.63q1.64,0,4.17,2.38t2.53,4q0,1.19-8.34,4.84t-20.54,8a191.3,191.3,0,0,0-18,6.85q-15.18,6.85-30.07,12.06a17.73,17.73,0,0,1-9.16.75q-3.94-.9-4.39-3.73a10.7,10.7,0,0,1,.08-1.41,2.36,2.36,0,0,1,.37-1.12,1.44,1.44,0,0,1,.74-.59,232.23,232.23,0,0,0,31.27-11.32q16.53-7,33.94-13.1Q887.7,59.4,891.12,57,895.14,54.63,896.93,54.63Zm-54-37.15a7.83,7.83,0,0,1,2.45-.07,22.42,22.42,0,0,1,3.35.6c1.69.49,3,2.08,3.95,4.76s1.81,7.29,2.6,13.84l1.35,11,12.5-6.25q9.67-4.92,13.25-5.51c2.38-.4,3.92.5,4.61,2.68a3.16,3.16,0,0,1-.44,3.2q-1.05,1.11-6.4,4-16.53,9.07-21.59,12.5a18.14,18.14,0,0,1-7.82,3.28c-2.43.29-3.94-.3-4.54-1.79q-.58-2.09-.59-14.74,0-13.1-1.79-19.5a67.41,67.41,0,0,1-1.79-7.3C842,17.86,842.29,17.63,842.89,17.48Zm16,67.45c1.94,1.53,3.15,4,3.65,7.51a67,67,0,0,0,2,10q1.26,4.4,2.31,4.84t9.52-1.64q9.69-2.52,17.72-4.16t10.5-.82c1.73.44,2.6,2,2.6,4.54A4.33,4.33,0,0,1,905,109a10.89,10.89,0,0,1-6,1.42q-3.87,0-18.16,3.72l-14.59,3.72-4.17-2.38a14,14,0,0,1-6-6.25,20.42,20.42,0,0,1-2.53-9.08A43.82,43.82,0,0,0,852.42,91a16.28,16.28,0,0,1-.82-4.46,2.17,2.17,0,0,1,1-1.79A5.08,5.08,0,0,1,858.89,84.93Z"/><path d="M972.39,117.19a6.53,6.53,0,0,1-.87,0l-4.17-.4.15-23.86a363.79,363.79,0,0,1,1.8-37.34c.69-6.21,1-10.47,1-12.67a20.33,20.33,0,0,0-1-6.26,18.4,18.4,0,0,1-1.1-5.43,16.16,16.16,0,0,1,1-4.92,19.51,19.51,0,0,0,.7-9.14,15,15,0,0,1-.12-5.06A5.78,5.78,0,0,1,972,9a7.87,7.87,0,0,1,4.33-1.6,4.65,4.65,0,0,1,3.63,1.75c1.82,2.12,2.07,5.17.74,9a16,16,0,0,0,0,8.27c.83,3.4,1.23,8.82,1.23,16.58a115.59,115.59,0,0,1-1.21,18.58,53.82,53.82,0,0,0-.78,6.46c1.18-.27,4-1.13,10.83-3.59,6.11-2.24,10.45-3.44,13.26-3.65l.86,0c3.44,0,4.83,1.72,5.39,3.17a5.42,5.42,0,0,1,0,4c-.36.92-1.47,2.22-6.77,4.62a92,92,0,0,1-12.44,4.52,66.58,66.58,0,0,0-9.9,3.63l-2.65,1.33V95.87c0,8.81-.35,14.39-1.08,17.06C976.45,116.45,974.15,117.19,972.39,117.19Zm-53.11-12.72a2.94,2.94,0,0,1-2.48-.92,2.09,2.09,0,0,1-.32-1.87c.25-1,1.14-2.63,5.81-6a33.25,33.25,0,0,0,6-5.53,58.55,58.55,0,0,0,5.39-8.38c3.38-6.29,5.34-11.11,5.82-14.34l.4-2.21-4.83,3.21c-5,3.38-8.7,5.34-11.24,6a11.83,11.83,0,0,1-3.17.56,3.92,3.92,0,0,1-1.07-.13,7.33,7.33,0,0,1-3.35-2.6c-1.94-2.17-2.81-3.67-2.81-4.86,0-2.08,2.59-3.08,3.44-3.41,2.16-.79,6.4-2.77,12.62-5.91,8-4,9.46-5,9.71-5.24s1-1,4.36-2.65a36.41,36.41,0,0,0,5.12-2.48,7.07,7.07,0,0,1,3.16-1.09h.1l.32,0c.88.16,1.82.9,3.16,2.48a6,6,0,0,1,1.6,4.81,124.26,124.26,0,0,1-3.47,11.94c-3.8,11.41-8,20.14-12.47,26a31.77,31.77,0,0,1-16.77,11.74A20.52,20.52,0,0,1,919.28,104.47Z"/><path d="M952.09,47.78c.54.1,1.36.8,2.45,2.08a4.78,4.78,0,0,1,1.34,3.87q-.3,2-3.42,11.77-5.65,17-12.28,25.6A30.57,30.57,0,0,1,924,102.42c-4.66,1.29-6.8,1.14-6.4-.45q.45-1.78,5.36-5.36a33.29,33.29,0,0,0,6.25-5.73,58.77,58.77,0,0,0,5.51-8.56q5.22-9.67,6-14.74l.89-4.91-7.14,4.76q-7.31,4.92-10.87,5.81a7.53,7.53,0,0,1-3.65.44,6.52,6.52,0,0,1-2.76-2.23c-1.68-1.88-2.53-3.25-2.53-4.09s.9-1.61,2.68-2.31q3.28-1.18,12.73-5.95c6.31-3.18,9.65-5,10.05-5.51a17.11,17.11,0,0,1,4-2.39,36,36,0,0,0,5.21-2.53A5.13,5.13,0,0,1,952.09,47.78ZM979,10q2.31,2.67.52,7.89a17.08,17.08,0,0,0,0,8.93q1.2,4.91,1.2,16.3a113.17,113.17,0,0,1-1.2,18.39q-1.18,7.44-.59,7.89c.2.4,4.26-.84,12.21-3.72q8.93-3.29,13-3.58t5.06,2.38a4.21,4.21,0,0,1,0,3.13c-.4,1-2.45,2.33-6.18,4a90,90,0,0,1-12.28,4.47,66.5,66.5,0,0,0-10.12,3.72l-3.28,1.64V95.87q0,12.94-1,16.75c-.7,2.53-2.23,3.64-4.62,3.35l-3.12-.3.15-22.78a358.89,358.89,0,0,1,1.78-37.22q1-9.37,1-12.8a21.14,21.14,0,0,0-1-6.63,17.62,17.62,0,0,1-1-5.06,15,15,0,0,1,.89-4.54,20.43,20.43,0,0,0,.75-9.68,14.87,14.87,0,0,1-.15-4.61A4.64,4.64,0,0,1,972.71,10C975.39,8.18,977.49,8.18,979,10Z"/><path d="M1039,142.11a3.05,3.05,0,0,1-1.64-.42,6.38,6.38,0,0,0-2.19-.75,3.37,3.37,0,0,1-2.83-2.88c-.18-.58-.53-1.82-1-3.61-1.08-3.68.67-5.6,2.33-6.55a5.67,5.67,0,0,1,3-1.08,3,3,0,0,1,.43,0c.58.08,1.55.41,3.88,2.15l3.53,2.48-.54,4.27c-.27,3.16-.5,4-.71,4.4a4,4,0,0,1-2.7,1.74A6.12,6.12,0,0,1,1039,142.11Zm-4.6-25.93a7.69,7.69,0,0,1-1.52-.17,10.7,10.7,0,0,1-5.28-3.08c-.64-.63-.94-1.7-.94-3.36a7.18,7.18,0,0,1,.75-3.57c.22-.32.75-1.45.81-7.84.07-6.2-.42-7.31-.52-7.47a3.84,3.84,0,0,1-.34-4.15,8.87,8.87,0,0,1,3.4-3.72,54.46,54.46,0,0,0,9.18-7.72,18.46,18.46,0,0,1,3.7-2.93,1.89,1.89,0,0,1,1.9-1.9,2.85,2.85,0,0,0,.24-.53A23,23,0,0,1,1048,66a19.34,19.34,0,0,0,4.12-15.54l-.73-3.18a26.66,26.66,0,0,0-1-3.34,7.85,7.85,0,0,0-.66-1.49c0-.06-.53-.36-2.78-.36a23.85,23.85,0,0,0-5.46.57,44.19,44.19,0,0,0-8,2.9,30.83,30.83,0,0,0-3.88,2.19,5.09,5.09,0,0,0-1.51,1.88,11.54,11.54,0,0,1-1.7,2.84,12,12,0,0,0-.72,2.95c-.94,4.17-2.59,6.26-4.9,6.26a5.71,5.71,0,0,1-3.56-1.54,6.83,6.83,0,0,1-2.45-8.3,10.13,10.13,0,0,0,1-3.48,3,3,0,0,1,1-2.62h0s.07-.1.07-.36c0-1.24.8-2.64,2.49-4.4a22.17,22.17,0,0,1,5.12-3.93,46.88,46.88,0,0,1,15.24-5.49,37.5,37.5,0,0,1,5.73-.76,23.81,23.81,0,0,1,5.53,1.08,20.36,20.36,0,0,1,4.43,1.52,15.83,15.83,0,0,1,3.41,3,15.55,15.55,0,0,1,3.13,4.38c.47,1.16,1.35,4.28,2.66,9.54a30.27,30.27,0,0,1,.63,6.47c0,3.45-.42,4.4-1.14,4.86a5.27,5.27,0,0,0,0,.57c0,.92-.37,2.72-3.61,7.79a11.54,11.54,0,0,0-1.36,2.41c-.36.83-1.31,2.23-5.8,6.72a93.17,93.17,0,0,1-8.3,7.54,28.2,28.2,0,0,0-3.67,3.08c0,.12-.38,1.59-.63,9.87a75.2,75.2,0,0,1-.69,10.38,9.18,9.18,0,0,1-2.34,4.86A4.13,4.13,0,0,1,1034.35,116.18Z"/><path d="M1045.36,32a23.28,23.28,0,0,1,5.21,1,19.42,19.42,0,0,1,4.17,1.41,15.09,15.09,0,0,1,3.12,2.76,14.7,14.7,0,0,1,2.91,4q.66,1.64,2.6,9.38a28.52,28.52,0,0,1,.6,6.18q0,3.49-.6,3.87a1.73,1.73,0,0,0-.59,1.56q0,1.78-3.43,7.15a13.21,13.21,0,0,0-1.49,2.68c-.39.89-2.23,3-5.5,6.25a90.36,90.36,0,0,1-8.19,7.44A30.21,30.21,0,0,0,1040.3,89q-.6.75-.9,10.57a71.3,71.3,0,0,1-.67,10.2,7.88,7.88,0,0,1-2,4.24,3.58,3.58,0,0,1-3.65.82,9.54,9.54,0,0,1-4.69-2.75,3.72,3.72,0,0,1-.6-2.53,6,6,0,0,1,.6-3c.59-.7.91-3.5,1-8.42s-.23-7.66-.82-8.26a2.71,2.71,0,0,1-.15-2.9,7.76,7.76,0,0,1,3-3.2,55.43,55.43,0,0,0,9.38-7.89q3-2.69,3.43-2.68c.39,0,.59-.3.59-.9s.25-.89.75-.89,1-.44,1.34-1.34a24.55,24.55,0,0,1,2.08-3.42,20.59,20.59,0,0,0,4.32-16.38l-.74-3.27a26.54,26.54,0,0,0-1-3.5,6.6,6.6,0,0,0-.89-1.86c-.3-.5-1.51-.75-3.65-.75a25,25,0,0,0-5.73.6,45.15,45.15,0,0,0-8.19,3,32.62,32.62,0,0,0-4.09,2.3,6.21,6.21,0,0,0-1.86,2.31,12.66,12.66,0,0,1-1.49,2.53c-.3.2-.65,1.39-1,3.57q-1.78,7.91-6.55,4a5.67,5.67,0,0,1-2.09-7,11.16,11.16,0,0,0,1-3.87c0-.9.15-1.44.45-1.64s.6-.65.6-1.34c0-.89.72-2.09,2.15-3.58A21.24,21.24,0,0,1,1025,38.1a45.68,45.68,0,0,1,14.89-5.36A37.4,37.4,0,0,1,1045.36,32Zm-8.56,96a9.77,9.77,0,0,1,3.35,1.93l3,2.09-.45,3.57a18.51,18.51,0,0,1-.59,4,3,3,0,0,1-1.94,1.11,3,3,0,0,1-2.23-.07,7.58,7.58,0,0,0-2.54-.89,2.22,2.22,0,0,1-1.93-1.94c-.2-.7-.55-1.94-1-3.72-.7-2.38-.1-4.12,1.78-5.21A4.12,4.12,0,0,1,1036.8,128Z"/></g></g></svg>