<svg xmlns="http://www.w3.org/2000/svg" viewBox="0 0 169.83 285.9"><g id="Layer_2" data-name="Layer 2"><g id="모래시계"><path d="M125.8,116.55c-9.84,9-16.23,14.84-19.79,18a9.2,9.2,0,0,0-3.12,6.63,13.08,13.08,0,0,0,3.82,9.36l20.22,20.11c.08.09,1.77,1.94,5,6,4.06,5.13,10,21.23,5.1,70.76l9.55,0c3.92-40.4,1.57-65.52-7.21-76.63-3.63-4.59-5.48-6.58-5.62-6.73l-20.28-20.19a4.89,4.89,0,0,1-1.21-2.22c3.58-3.15,10-9,20-18.1,19.49-17.91,17.68-72.49,16.72-88.27h-9.51C140.72,55.93,140.44,103.1,125.8,116.55Z"/><path d="M91.43,171.23a6.61,6.61,0,0,0-6.51-6.59v13.18A6.61,6.61,0,0,0,91.43,171.23Z"/><path d="M91.43,223a6.59,6.59,0,0,0-6.51-6.58v13.17A6.6,6.6,0,0,0,91.43,223Z"/><path d="M86.33,121.28l-1,.12-.41-.11v26.39a7,7,0,0,0,6.88-7V120.19A49.46,49.46,0,0,1,86.33,121.28Z"/><path d="M85.76,116.58a41.89,41.89,0,0,0,5-1.07,6.85,6.85,0,0,0-5.88-3.57v4.48l.25,0A2.47,2.47,0,0,0,85.76,116.58Z"/><path d="M83.5,121.28A49.46,49.46,0,0,1,78,120.19v20.54a7,7,0,0,0,6.88,7V121.29l-.42.11Z"/><path d="M44,116.55c9.84,9,16.23,14.84,19.79,18a9.24,9.24,0,0,1,3.12,6.63,13.08,13.08,0,0,1-3.82,9.36L42.9,170.62c-.08.09-1.77,1.94-5,6-4.07,5.13-10,21.23-5.1,70.76l-9.55,0c-3.92-40.4-1.58-65.52,7.21-76.63,3.63-4.59,5.47-6.58,5.61-6.73l20.29-20.19a5,5,0,0,0,1.21-2.22c-3.59-3.15-10-9-20-18.1C18.12,105.63,19.93,51.05,20.89,35.27H30.4C29.11,55.93,29.39,103.1,44,116.55Z"/><path d="M78.4,171.23a6.6,6.6,0,0,1,6.51-6.59v13.18A6.6,6.6,0,0,1,78.4,171.23Z"/><path d="M78.4,223a6.58,6.58,0,0,1,6.51-6.58v13.17A6.59,6.59,0,0,1,78.4,223Z"/><path d="M84.91,111.94v4.48l-.25,0a2.55,2.55,0,0,1-.6.12,42.73,42.73,0,0,1-5-1.07A6.88,6.88,0,0,1,84.91,111.94Z"/><path d="M164,252.61c-2.13-2.87-4.65-4.58-7.28-5-1.36-.19-2.5-.29-3.48-.33v0H20.45v.1H19.22a23.5,23.5,0,0,0-6.06.26c-2.63.37-5.15,2.08-7.28,5C2,257.86-1.46,268.3.64,281.87a4.73,4.73,0,0,0,4.68,4h0l79.58-.12v-9.49l-75.34.11c-.71-11.46,3.49-18.61,5.18-19.41a24.48,24.48,0,0,1,3.47-.14,5.07,5.07,0,0,0,.55,0l66.14.17v-2.59h0v2.59l66.13-.17a5.25,5.25,0,0,0,.56,0,24.52,24.52,0,0,1,3.47.14c1.68.8,5.88,7.95,5.18,19.41l-75.34-.11v9.49l79.58.12h0a4.74,4.74,0,0,0,4.69-4C171.29,268.3,167.86,257.86,164,252.61Z"/><path d="M169,4.2a4.74,4.74,0,0,0-4.67-4L84.92,0V9.49L160,9.67c.35,5.52-.1,12.2-2.33,14.94a2.79,2.79,0,0,1-2.24,1.12l-.69,0a15.21,15.21,0,0,1-1.77,0l-68.09.14v3.76h0V25.91l-68.1-.14a15,15,0,0,1-1.76,0l-.7,0a2.77,2.77,0,0,1-2.23-1.12C9.89,21.87,9.43,15.19,9.78,9.67l75.13-.18V0L5.51.19a4.74,4.74,0,0,0-4.67,4C.54,6.05-1.82,22.49,4.75,30.58a12.25,12.25,0,0,0,9.11,4.63,27.11,27.11,0,0,0,2.78,0v.13h134v-.13h2.27a28.25,28.25,0,0,0,3,0,12.25,12.25,0,0,0,9.11-4.63C171.64,22.49,169.28,6.05,169,4.2Z"/><path d="M129.62,52.41C129.36,48,129.07,43,124.2,43H84.92v73.33h0V43H45.62c-4.86,0-5.16,5-5.42,9.41-.37,6.2-2.15,58.52,37.83,67.78h0a36.62,36.62,0,0,0,6,1.24l.8.09v0l.88-.09a53.94,53.94,0,0,0,6-1.25h0l.11,0h0C131.77,110.79,130,58.6,129.62,52.41Z"/></g></g></svg>